<?xml version="1.0" encoding="utf-8"?>
<!-- Generator: Adobe Illustrator 17.0.0, SVG Export Plug-In . SVG Version: 6.00 Build 0)  -->
<!DOCTYPE svg PUBLIC "-//W3C//DTD SVG 1.1//EN" "http://www.w3.org/Graphics/SVG/1.1/DTD/svg11.dtd">
<svg version="1.1" xmlns="http://www.w3.org/2000/svg" xmlns:xlink="http://www.w3.org/1999/xlink" x="0px" y="0px"
	 width="301.322px" height="437.298px" viewBox="0 0 301.322 437.298" enable-background="new 0 0 301.322 437.298"
	 xml:space="preserve">
<g id="Capa_4">
</g>
<g id="fondo">
	<g>
		
			<radialGradient id="SVGID_1_" cx="465.8227" cy="1072.7581" r="133.5369" gradientTransform="matrix(0.9222 0.3867 -0.3867 0.9222 166.7311 -1023.3851)" gradientUnits="userSpaceOnUse">
			<stop  offset="0" style="stop-color:#003C58"/>
			<stop  offset="1" style="stop-color:#011722"/>
		</radialGradient>
		<path fill="url(#SVGID_1_)" d="M286.101,189.894c-32.25,76.919-105.211,119.645-162.963,95.431
			c-57.752-24.214-78.426-106.198-46.177-183.117S182.172-17.437,239.925,6.777S318.351,112.975,286.101,189.894z"/>
		<g>
			<path fill="#E3E3E3" d="M210.22,273.385L89.039,233.1c-9.843-3.272-15.17-13.904-11.898-23.748l28.556-85.898
				c3.272-9.843,13.904-15.17,23.748-11.898l121.18,40.285c9.843,3.272,15.17,13.904,11.898,23.748l-28.556,85.898
				C230.695,271.331,220.063,276.658,210.22,273.385z"/>
			
				<rect x="119.564" y="160.913" transform="matrix(0.9489 0.3155 -0.3155 0.9489 74.9971 -40.8193)" fill="#C2C2C2" width="88.048" height="100.682"/>
			<g>
				<circle fill="#FF4B3A" cx="128.478" cy="308.82" r="128.478"/>
				<path opacity="0.2" d="M236.973,239.986c5.625,14.447,8.717,30.161,8.717,46.598c0,70.956-57.521,128.478-128.478,128.478
					c-45.631,0-85.702-23.791-108.495-59.643c18.659,47.919,65.241,81.879,119.76,81.879c70.956,0,128.478-57.521,128.478-128.478
					C256.955,283.495,249.624,259.884,236.973,239.986z"/>
				<circle fill="#C93629" cx="76.592" cy="255.7" r="30.884"/>
				<circle fill="#C93629" cx="42.002" cy="316.85" r="13.589"/>
				<circle fill="#C93629" cx="180.672" cy="237.478" r="18.222"/>
				<circle fill="#C93629" cx="141.426" cy="327.9" r="8.625"/>
				<circle fill="#C93629" cx="231.013" cy="277.959" r="8.625"/>
				<g opacity="0.2">
					<path d="M128.478,180.343c-16.848,0-32.935,3.248-47.678,9.144c-0.464,0.806-0.921,1.627-1.367,2.467l0,0
						c-0.001,0.002-0.002,0.003-0.003,0.005c-0.415,0.782-0.821,1.58-1.218,2.392c-0.001,0.002-0.002,0.004-0.003,0.006h0
						c-3.29,6.732-5.959,14.515-7.624,23.521c-0.788,1.534-1.397,3.191-1.755,4.965c-2.064,10.221-2.331,21.31-0.795,32.958
						c1.271,9.634,9.497,16.645,18.957,16.646c0.835,0,1.68-0.055,2.531-0.167c10.484-1.383,17.863-11.003,16.48-21.488
						c-0.396-3.002-0.603-5.901-0.64-8.697l1.134,1.14c2.886,2.903,7.579,2.917,10.482,0.031c2.903-2.886,2.917-7.579,0.031-10.482
						l-10.893-10.957c-0.464-1.78-1.177-3.471-2.113-5.031c0.795-2.455,1.718-4.737,2.745-6.86c0.453-0.936,0.923-1.843,1.413-2.718
						c2.613-4.66,5.728-8.471,9.015-11.575c0.629-0.594,1.265-1.156,1.905-1.699c3.312-2.817,6.724-4.974,9.914-6.616
						c0.812-0.418,1.609-0.804,2.387-1.157c0.459-0.209,0.913-0.41,1.356-0.598c2.538-1.074,4.687-2.745,6.329-4.795
						C135.575,180.495,132.044,180.343,128.478,180.343z"/>
					<path d="M225.07,304.638c7.267-9.232,12.697-18.904,16.14-28.747c0.598-1.708,0.921-3.443,1.025-5.165
						c1.726-4.685,2.996-9.202,3.905-13.559c-9.502-21.614-24.781-40.111-43.887-53.536c0.336,2.684,1.341,5.304,3.026,7.591
						c0.285,0.387,0.572,0.791,0.859,1.203c0.489,0.703,0.979,1.443,1.465,2.218c1.905,3.039,3.737,6.635,5.147,10.746
						c0.273,0.796,0.534,1.605,0.772,2.439c1.242,4.345,1.974,9.211,1.842,14.55c-0.025,1.003-0.083,2.024-0.172,3.061h0
						c-0.201,2.349-0.571,4.782-1.141,7.299c-1.602,0.864-3.078,1.953-4.385,3.247l-14.96,3.862
						c-3.964,1.023-6.347,5.066-5.324,9.03c1.023,3.964,5.066,6.347,9.03,5.324l1.557-0.402c-1.459,2.385-3.117,4.773-4.99,7.152
						c-6.541,8.31-5.107,20.348,3.203,26.89c0.674,0.53,1.372,1.009,2.091,1.435C208.407,314.104,219.059,312.273,225.07,304.638z"
						/>
				</g>
				<g>
					<g>
						<path fill="#D1D1D1" d="M220.489,279.24c7.55,2.441,15.923-1.03,19.425-8.39c15.928-33.482,9.233-59.791,0.811-75.966
							c-2.394-4.598-5.051-8.629-7.684-12.085c-6.686-8.777-19.957-8.567-26.363,0.416l0,0c-4.026,5.647-3.896,13.214,0.217,18.798
							c7.495,10.176,16.165,29.228,4.158,54.733c-3.576,7.597-0.975,16.901,6.298,21.097
							C218.368,278.43,219.42,278.894,220.489,279.24z"/>
					</g>
					<g>
						<path fill="#FFFFFF" d="M201.887,300.067c8.136,4.828,18.788,2.998,24.799-4.638c7.267-9.232,12.697-18.904,16.14-28.747
							c3.492-9.983-1.772-20.907-11.753-24.396c-9.983-3.492-20.905,1.77-24.396,11.752c-2.044,5.844-5.437,11.8-10.083,17.704
							c-6.541,8.31-5.107,20.348,3.203,26.89C200.471,299.162,201.169,299.641,201.887,300.067z"/>
					</g>
					<path fill="#FFFFFF" d="M200.027,264.993l16.154-4.17c3.964-1.023,6.347-5.066,5.324-9.03l0,0
						c-1.023-3.964-5.066-6.347-9.03-5.324l-16.154,4.17c-3.964,1.023-6.347,5.066-5.324,9.03l0,0
						C192.021,263.632,196.064,266.016,200.027,264.993z"/>
					<path fill="#888888" d="M238.385,190.725c0.533,0.893,1.054,1.817,1.569,2.76c-8.034-2.085-21.114-2.489-30.735,11.95
						c-0.486-0.776-0.976-1.516-1.466-2.219C217.198,189.79,229.744,189.077,238.385,190.725z"/>
					<path fill="#888888" d="M215.138,218.621c-0.239-0.835-0.5-1.645-0.773-2.442c13.455-8.651,25.136-7.878,32.457-5.782
						c0.25,0.911,0.489,1.837,0.711,2.781C240.829,210.924,229.02,209.447,215.138,218.621z"/>
					<path fill="#888888" d="M249.477,234.709c-0.043,0.888-0.101,1.785-0.175,2.691c-7.397-4.894-19.814-9.942-32.495-1.169
						c0.089-1.036,0.147-2.058,0.172-3.061C229.481,225.547,241.687,229.938,249.477,234.709z"/>
				</g>
				<circle fill="#C93629" cx="188.702" cy="380.162" r="10.809"/>
				<circle fill="#C93629" cx="109.638" cy="390.045" r="20.692"/>
			</g>
			<g>
				<g>
					<path fill="#D1D1D1" d="M83.247,235.835c-7.738-1.754-13.167-9.014-12.421-17.13c3.394-36.922,22.581-56.128,38.079-65.738
						c4.406-2.732,8.748-4.842,12.776-6.47c10.229-4.134,21.534,2.82,22.457,13.815l0,0c0.58,6.911-3.395,13.351-9.782,16.054
						c-11.639,4.925-28.82,16.882-31.514,44.943c-0.803,8.358-7.788,15.032-16.184,14.927
						C85.483,236.221,84.342,236.083,83.247,235.835z"/>
				</g>
				<g>
					<path fill="#FFFFFF" d="M88.611,263.24c-9.461-0.001-17.686-7.012-18.958-16.646c-1.537-11.648-1.269-22.737,0.795-32.958
						c2.093-10.367,12.195-17.073,22.559-14.98c10.366,2.093,17.073,12.193,14.98,22.559c-1.226,6.069-1.348,12.922-0.366,20.371
						c1.383,10.484-5.995,20.105-16.48,21.488C90.291,263.185,89.447,263.24,88.611,263.24z"/>
				</g>
				<path fill="#FFFFFF" d="M108.114,234.028l-11.762-11.832c-2.886-2.903-2.872-7.596,0.031-10.482l0,0
					c2.903-2.886,7.596-2.872,10.482,0.031l11.762,11.832c2.886,2.903,2.872,7.596-0.031,10.482l0,0
					C115.693,236.945,111,236.932,108.114,234.028z"/>
				<path fill="#888888" d="M113.039,150.585c-0.914,0.496-1.834,1.024-2.759,1.573c7.973,2.308,19.427,8.637,20.33,25.965
					c0.814-0.419,1.614-0.806,2.393-1.16C131.736,160.596,121.311,153.579,113.039,150.585z"/>
				<path fill="#888888" d="M118.79,186.44c0.631-0.596,1.27-1.16,1.911-1.705c-7.154-14.307-17.594-19.605-24.959-21.54
					c-0.68,0.656-1.358,1.33-2.031,2.029C100.628,166.707,111.536,171.465,118.79,186.44z"/>
				<path fill="#888888" d="M81.05,182.745c-0.417,0.786-0.824,1.587-1.223,2.403c8.859-0.433,22.113,1.565,28.539,15.581
					c0.453-0.937,0.924-1.844,1.414-2.72C102.921,185.075,90.184,182.619,81.05,182.745z"/>
			</g>
			<path opacity="0.1" d="M218.445,176.441l-78.967-26.252c-1.451-1.466-3.171-2.642-5.049-3.477
				c0.691,3.731,1.775,7.369,3.237,10.845v0c2.466,5.864,5.978,11.271,10.393,15.915c0.058,0.061,0.118,0.119,0.176,0.18
				c0.55,0.573,1.113,1.135,1.69,1.684c0.138,0.132,0.28,0.259,0.42,0.389c0.506,0.471,1.02,0.934,1.546,1.385
				c0.192,0.165,0.387,0.326,0.581,0.488c0.486,0.405,0.979,0.803,1.482,1.191c0.232,0.18,0.467,0.357,0.703,0.533
				c0.478,0.357,0.963,0.705,1.454,1.046c0.265,0.184,0.531,0.367,0.8,0.547c0.479,0.319,0.966,0.628,1.458,0.933
				c0.288,0.179,0.576,0.358,0.869,0.532c0.491,0.29,0.99,0.569,1.493,0.844c0.304,0.167,0.605,0.337,0.914,0.498
				c0.514,0.268,1.038,0.521,1.563,0.774c0.307,0.147,0.61,0.301,0.921,0.443c0.574,0.262,1.161,0.506,1.749,0.748
				c0.271,0.112,0.537,0.233,0.811,0.34c0.867,0.34,1.745,0.662,2.638,0.959l2.735,0.909c0.894,0.297,1.79,0.565,2.689,0.812
				c0.281,0.077,0.563,0.138,0.844,0.21c0.619,0.159,1.238,0.315,1.858,0.45c0.333,0.072,0.666,0.13,0.999,0.196
				c0.572,0.113,1.145,0.224,1.717,0.317c0.344,0.056,0.688,0.1,1.033,0.149c0.566,0.08,1.132,0.156,1.697,0.217
				c0.338,0.036,0.676,0.065,1.015,0.094c0.577,0.051,1.153,0.095,1.729,0.126c0.321,0.017,0.641,0.03,0.961,0.041
				c0.6,0.021,1.199,0.033,1.797,0.033c0.294,0,0.587-0.001,0.88-0.006c0.635-0.01,1.268-0.034,1.9-0.067
				c0.253-0.013,0.505-0.025,0.757-0.043c0.693-0.047,1.383-0.11,2.071-0.184c0.188-0.02,0.376-0.037,0.564-0.06
				c0.793-0.094,1.582-0.208,2.367-0.338c0.081-0.013,0.163-0.024,0.244-0.038c9.918-1.69,19.184-6.218,26.621-12.976
				C222.045,176.417,220.236,176.271,218.445,176.441z"/>
			<g>
				
					<line fill="none" stroke="#FFFFFF" stroke-width="2.4707" stroke-miterlimit="10" x1="241.869" y1="154.286" x2="261.939" y2="93.914"/>
				<circle fill="#C2C2C2" cx="261.907" cy="94.337" r="4.736"/>
				
					<line fill="none" stroke="#FFFFFF" stroke-width="2.4707" stroke-miterlimit="10" x1="137.438" y1="119.569" x2="157.509" y2="59.197"/>
				<path fill="#C2C2C2" d="M129.767,135.895l9.032,3.003l12.666-38.099l-9.032-3.003c-4.807-1.598-9.999,1.003-11.597,5.81
					l-6.879,20.692C122.359,129.105,124.96,134.297,129.767,135.895z"/>
				<g opacity="0.1">
					<path d="M141.471,130.86l-9.965-3.313c-4.292-1.427-6.614-6.062-5.187-10.354l-2.362,7.104
						c-1.598,4.807,1.003,9.999,5.81,11.597l9.032,3.003L141.471,130.86z"/>
				</g>
				<path fill="#C2C2C2" d="M236.48,171.371l-9.032-3.003l12.666-38.099l9.032,3.003c4.807,1.598,7.408,6.79,5.81,11.597
					l-6.879,20.692C246.479,170.368,241.287,172.969,236.48,171.371z"/>
				<g opacity="0.1">
					<path d="M250.857,157.2c-1.396,4.198-5.931,6.47-10.129,5.075l-10.134-3.369l-3.146,9.462l9.032,3.003
						c4.807,1.598,9.999-1.003,11.597-5.81L250.857,157.2z"/>
				</g>
				<path fill="#FFFFFF" d="M174.634,182.597l-2.735-0.909c-27.295-9.074-42.202-38.83-33.129-66.124v0
					c9.074-27.295,38.83-42.202,66.124-33.129l2.735,0.909c27.295,9.074,42.202,38.83,33.129,66.124v0
					C231.684,176.763,201.928,191.671,174.634,182.597z"/>
				<path fill="#00212F" d="M140.24,152.26c5.653,13.442,16.818,24.495,31.659,29.428l2.735,0.909
					c14.84,4.933,30.401,2.765,42.976-4.616l3.674-6.731c6.385-11.698,13.598-32.925,15.778-46.072l-0.012,0.036
					c1.088-6.562-2.747-12.977-9.06-15.075l-55.448-18.433c-6.312-2.099-13.225,0.743-16.282,6.65l0.012-0.036
					c-6.125,11.836-13.057,33.157-14.946,46.349L140.24,152.26z"/>
				<path opacity="0.2" d="M237.031,125.273c0.358-2.159,0.173-4.294-0.45-6.267c-0.313,1.233-0.657,2.464-1.064,3.69
					c-9.178,27.608-41.806,50.993-69.415,41.815c-10.331-3.435-18.887-9.761-25.071-17.779l-0.792,5.528
					c5.653,13.442,16.818,24.495,31.659,29.428l2.735,0.909c14.84,4.933,30.401,2.765,42.976-4.616l3.674-6.731
					C227.669,159.552,234.851,138.421,237.031,125.273z"/>
				<circle opacity="0.2" fill="#FFFFFF" cx="173.481" cy="125.367" r="13.898"/>
				<circle opacity="0.2" fill="#FFFFFF" cx="155.454" cy="144.838" r="5.714"/>
				<circle fill="#C2C2C2" cx="157.476" cy="59.62" r="4.736"/>
			</g>
		</g>
	</g>
</g>
<g id="LOGO">
</g>
<g id="datos">
</g>
<g id="guia" display="none">
</g>
</svg>
