<?xml version="1.0" encoding="utf-8"?>
<!-- Generator: Adobe Illustrator 17.0.0, SVG Export Plug-In . SVG Version: 6.00 Build 0)  -->
<!DOCTYPE svg PUBLIC "-//W3C//DTD SVG 1.1//EN" "http://www.w3.org/Graphics/SVG/1.1/DTD/svg11.dtd">
<svg version="1.1" xmlns="http://www.w3.org/2000/svg" xmlns:xlink="http://www.w3.org/1999/xlink" x="0px" y="0px"
	 width="44.407px" height="37.83px" viewBox="0 0 44.407 37.83" enable-background="new 0 0 44.407 37.83" xml:space="preserve">
<g id="Capa_4">
</g>
<g id="fondo">
</g>
<g id="LOGO">
</g>
<g id="datos">
	<g>
		<path fill="#333333" d="M2.536,18.92c0-9.1,7.371-16.46,16.462-16.46c9.09,0,16.461,7.36,16.461,16.46
			c0,9.09-7.371,16.46-16.461,16.46C9.907,35.38,2.536,28.01,2.536,18.92 M0,18.92c0,10.45,8.468,18.91,18.916,18.91
			c9.058,0,16.623-6.36,18.477-14.87l7.014-4.04l-7.014-4.05C35.539,6.37,27.974,0,18.916,0C8.468,0,0,8.47,0,18.92"/>
		<g>
			<path fill="#333333" d="M18.72,11.765v-0.73h1.901v0.73c0,0.386,0.293,0.704,0.651,0.704h0.162c0.358,0,0.651-0.318,0.651-0.704
				v-0.73h1.901v0.73c0,0.386,0.293,0.704,0.651,0.704H24.8c0.357,0,0.65-0.318,0.65-0.704v-0.73h0.388l1.238,1.315v2.105h1.302
				v-2.696L26.37,9.628h-0.92V8.914c0-0.386-0.293-0.703-0.65-0.703h-0.163c-0.358,0-0.651,0.317-0.651,0.703v0.714h-1.901V8.914
				c0-0.386-0.293-0.703-0.651-0.703h-0.162c-0.358,0-0.651,0.317-0.651,0.703v0.714H18.72V8.914c0-0.386-0.293-0.703-0.651-0.703
				h-0.162c-0.358,0-0.651,0.317-0.651,0.703v0.714h-1.901V8.914c0-0.386-0.293-0.703-0.651-0.703h-0.162
				c-0.358,0-0.651,0.317-0.651,0.703v0.714h-3.079v21.101h5.746l0.326-1.407h-4.771V11.035h1.778v0.73
				c0,0.386,0.293,0.704,0.651,0.704h0.162c0.358,0,0.651-0.318,0.651-0.704v-0.73h1.901v0.73c0,0.386,0.293,0.704,0.651,0.704
				h0.162C18.426,12.469,18.72,12.151,18.72,11.765"/>
			<path fill="#333333" d="M23.489,26.771l-1.625-1.758l5.441-5.885l1.625,1.758L23.489,26.771z M20.097,25.589l2.866,3.099
				l-2.691,0.729l-0.84-0.956L20.097,25.589z M31.21,18.914l-2.083-2.253c-0.506-0.548-1.325-0.558-1.82-0.023
				c-0.001,0.001-0.001,0.001-0.001,0.002l-0.001-0.001l-7.593,8.214l-0.153,0.164l-1.315,5.676l5.243-1.423l0.489-0.538
				l7.254-7.849c0,0,0.001,0,0.001-0.001C31.726,20.349,31.716,19.462,31.21,18.914"/>
			<path fill="#333333" d="M18.244,12.995c1.495,0,2.706,1.31,2.706,2.927c0,1.616-1.211,2.926-2.706,2.926
				c-1.494,0-2.705-1.31-2.705-2.926C15.539,14.305,16.75,12.995,18.244,12.995"/>
			<path fill="#333333" d="M20.454,18.585c-0.587,0.569-1.362,0.916-2.21,0.916c-0.849,0-1.623-0.347-2.209-0.916
				c-1.576,0.906-2.658,2.749-2.67,4.879h9.759C23.112,21.334,22.03,19.491,20.454,18.585"/>
		</g>
	</g>
</g>
<g id="guia" display="none">
</g>
</svg>
