<?xml version="1.0" encoding="utf-8"?>
<!-- Generator: Adobe Illustrator 17.0.0, SVG Export Plug-In . SVG Version: 6.00 Build 0)  -->
<!DOCTYPE svg PUBLIC "-//W3C//DTD SVG 1.1//EN" "http://www.w3.org/Graphics/SVG/1.1/DTD/svg11.dtd">
<svg version="1.1" xmlns="http://www.w3.org/2000/svg" xmlns:xlink="http://www.w3.org/1999/xlink" x="0px" y="0px"
	 width="44.407px" height="37.83px" viewBox="0 0 44.407 37.83" enable-background="new 0 0 44.407 37.83" xml:space="preserve">
<g id="Capa_4">
</g>
<g id="fondo">
</g>
<g id="LOGO">
</g>
<g id="datos">
	<g>
		<path fill="#B7C2D8" d="M2.537,19.126C2.423,10.027,9.702,2.575,18.792,2.461c9.089-0.114,16.552,7.153,16.666,16.253
			c0.114,9.089-7.164,16.551-16.254,16.665C10.114,35.492,2.651,28.215,2.537,19.126 M0,18.92c0,10.45,8.468,18.91,18.916,18.91
			c9.058,0,16.623-6.36,18.477-14.87l7.014-4.04l-7.014-4.05C35.539,6.37,27.974,0,18.916,0C8.468,0,0,8.47,0,18.92"/>
		<path fill="#B7C2D8" d="M8.833,15.134l-0.642,7.113l0.642,2.133l0.596-2.133L8.833,15.134z M19.472,21.052L8.762,14.56
			l10.74-3.426l10.714,3.375L19.472,21.052z M26.958,20.915l-0.57-3.285l-6.968,4.156l-6.836-4.156l-0.567,3.547
			c0-0.004,0.007-0.008,0.011-0.016c-0.082,0.137-0.125,0.277-0.125,0.418c0,1.254,5.263,5.117,7.013,5.117
			c1.753,0,8.155-3.859,8.155-5.117C27.07,21.446,27.028,21.313,26.958,20.915"/>
	</g>
</g>
<g id="guia" display="none">
</g>
</svg>
