<?xml version="1.0" encoding="utf-8"?>
<!-- Generator: Adobe Illustrator 17.0.0, SVG Export Plug-In . SVG Version: 6.00 Build 0)  -->
<!DOCTYPE svg PUBLIC "-//W3C//DTD SVG 1.1//EN" "http://www.w3.org/Graphics/SVG/1.1/DTD/svg11.dtd">
<svg version="1.1" xmlns="http://www.w3.org/2000/svg" xmlns:xlink="http://www.w3.org/1999/xlink" x="0px" y="0px"
	 width="86.872px" height="86.248px" viewBox="0 0 86.872 86.248" enable-background="new 0 0 86.872 86.248" xml:space="preserve">
<g id="Capa_4">
</g>
<g id="fondo">
</g>
<g id="LOGO">
	<g>
		<polygon fill="#020E26" points="43.161,79.238 43.13,79.209 43.124,79.215 7.033,43.124 7.04,43.116 7.025,43.1 12.3,37.826 
			12.315,37.843 43.124,7.033 57.22,21.129 60.737,17.614 43.124,0 0,43.124 43.124,86.248 60.255,69.117 56.768,65.63 		"/>
		
			<rect x="59.51" y="51.484" transform="matrix(0.7071 0.7071 -0.7071 0.7071 56.3564 -27.999)" fill="#020E26" width="4.932" height="5.089"/>
		<polygon fill="#020E26" points="10.042,43.118 43.13,76.206 55.248,64.09 51.76,60.602 43.161,69.203 13.559,39.6 		"/>
		<polygon fill="#020E26" points="67.277,55.217 61.922,60.574 40.483,39.136 36.966,42.651 53.159,58.843 58.434,64.119 
			61.922,67.605 86.872,42.654 83.357,39.137 		"/>
	</g>
</g>
<g id="datos">
</g>
<g id="guia" display="none">
</g>
</svg>
