<?xml version="1.0" encoding="utf-8"?>
<!-- Generator: Adobe Illustrator 17.0.0, SVG Export Plug-In . SVG Version: 6.00 Build 0)  -->
<!DOCTYPE svg PUBLIC "-//W3C//DTD SVG 1.1//EN" "http://www.w3.org/Graphics/SVG/1.1/DTD/svg11.dtd">
<svg version="1.1" id="Capa_1" xmlns="http://www.w3.org/2000/svg" xmlns:xlink="http://www.w3.org/1999/xlink" x="0px" y="0px"
	 width="319.839px" height="317.539px" viewBox="0 0 319.839 317.539" enable-background="new 0 0 319.839 317.539"
	 xml:space="preserve">
<g>
	<polygon fill="#FFFFFF" points="158.907,291.732 158.792,291.624 158.769,291.646 25.892,158.769 25.921,158.741 25.864,158.684 
		45.284,139.263 45.341,139.326 158.769,25.892 210.668,77.791 223.617,64.848 158.769,0 0,158.769 158.769,317.539 221.843,254.47 
		209.003,241.63 	"/>
	<polygon fill="#FFFFFF" points="241.224,198.715 228.384,185.875 215.131,199.121 227.977,211.961 	"/>
	<polygon fill="#FFFFFF" points="36.97,158.746 158.792,280.569 203.407,235.96 190.567,223.119 158.907,254.785 49.919,145.797 	
		"/>
	<polygon fill="#FFFFFF" points="247.695,203.293 227.977,223.016 149.048,144.087 136.099,157.03 195.717,216.642 215.137,236.068 
		227.977,248.903 319.839,157.041 306.896,144.092 	"/>
</g>
</svg>
