<?xml version="1.0" encoding="iso-8859-1"?>
<!-- Generator: Adobe Illustrator 16.0.0, SVG Export Plug-In . SVG Version: 6.00 Build 0)  -->
<!DOCTYPE svg PUBLIC "-//W3C//DTD SVG 1.1//EN" "http://www.w3.org/Graphics/SVG/1.1/DTD/svg11.dtd">
<svg version="1.1" id="Capa_1" xmlns="http://www.w3.org/2000/svg" xmlns:xlink="http://www.w3.org/1999/xlink" x="0px" y="0px"
	 width="48.547px" height="51.563px" viewBox="0 0 48.547 51.563" style="enable-background:new 0 0 48.547 51.563;"
	 xml:space="preserve">
<g>
	<path style="fill:#FAFAFC;" d="M19.132,31.064c-2.256,0-3.084-2.045-3.084-4.285c0-0.276,0-0.552,0.033-0.845v0.017
		c0.308-3.62,2.678-7.921,5.681-7.921c1.916,0,3.036,1.932,2.906,3.766c-0.032,0.389-0.082,1.039-0.633,1.039
		c-0.113-0.017-0.194-0.049-0.325-0.178c0.082-0.292,0.146-0.585,0.163-0.812c0.064-0.909-0.195-1.85-0.763-1.85
		c-1.299,0-3.587,4.188-4.025,7.271c-0.017,0.18-0.033,0.39-0.033,0.568c0,1.022,0.309,1.916,1.282,1.916
		c1.704,0,3.036-2.191,3.879-3.62v0.017c0.52-0.893,0.974-1.818,1.331-2.532c0.163-0.325,0.423-0.779,0.585-1.087
		c0.113-0.049,0.211-0.082,0.243-0.082c0.194,0,0.309,0.13,0.39,0.309l-0.162,0.357c-0.39,0.795-0.99,1.98-1.672,3.166
		C23.774,28.37,22.151,31.064,19.132,31.064"/>
	<path style="fill:#FAFAFC;" d="M27.236,29.683c0,0.584,0.048,1.022,0.162,1.282l0.665-1.25c0.796-1.607,1.932-4.22,1.932-5.535
		c0-0.52-0.146-0.844-0.52-0.925C28.177,22.914,27.236,27.248,27.236,29.683 M32.187,29.585c0.26-0.179,0.422-0.13,0.697,0.13
		c-0.648,1.493-1.979,2.824-3.538,3.084c-0.568,0.081-1.233-0.032-1.802-0.357c-0.47,0.941-0.974,1.818-1.363,2.483
		c-0.763,1.282-1.883,2.743-3.604,2.679c-1.477-0.032-1.899-1.737-1.899-3.814c0-1.705,0.276-3.668,0.487-5.097
		c0.146-0.926,0.244-1.64,0.228-1.964c-0.016-0.292-0.114-0.519-0.179-0.682c-0.032-0.081-0.065-0.129-0.065-0.227
		c-0.032-0.292,0.228-0.406,0.52-0.455c0.422-0.065,0.99,0,1.185,0.081c0.682,0.341,1.022,1.136,1.071,1.964
		c0.032,0.86-0.114,1.964-0.26,2.597c-0.163,0.941-0.422,2.532-0.503,3.766c0,0.049-0.017,0.114-0.017,0.163
		c0,0.194-0.016,0.454-0.016,0.714c0,0.633,0.082,1.331,0.633,1.38c0.682,0.064,1.298-0.796,1.656-1.396
		c0.422-0.697,0.925-1.591,1.51-2.743c-0.585-0.763-0.86-1.996-0.86-3.278c0-2.922,1.363-6.331,3.408-6.184
		c0.926,0.064,1.267,0.681,1.267,1.606c0,1.461-0.894,3.685-1.818,5.713l-0.909,1.884c0.325,0.275,0.715,0.438,1.071,0.438
		c0.13,0,0.292-0.032,0.455-0.065c1.087-0.275,2.094-1.282,2.629-2.386L32.187,29.585z"/>
	<path style="fill:none;stroke:#FAFAFC;stroke-width:0.3977;stroke-miterlimit:10;" d="M48.266,24.274L24.273,48.266L0.281,24.273
		L24.273,0.281L48.266,24.274z M48.266,27.289L24.273,51.281L0.281,27.289L24.273,3.297L48.266,27.289z"/>
</g>
</svg>
