<?xml version="1.0" encoding="utf-8"?>
<!-- Generator: Adobe Illustrator 17.0.0, SVG Export Plug-In . SVG Version: 6.00 Build 0)  -->
<!DOCTYPE svg PUBLIC "-//W3C//DTD SVG 1.1//EN" "http://www.w3.org/Graphics/SVG/1.1/DTD/svg11.dtd">
<svg version="1.1" xmlns="http://www.w3.org/2000/svg" xmlns:xlink="http://www.w3.org/1999/xlink" x="0px" y="0px"
	 width="192.455px" height="196.761px" viewBox="0 0 192.455 196.761" enable-background="new 0 0 192.455 196.761"
	 xml:space="preserve">
<g id="Capa_4">
</g>
<g id="fondo">
</g>
<g id="LOGO">
	<g>
		<g opacity="0.3">
			<path d="M179.116,19.066c0.022-0.36,0.039-0.708,0.055-1.05c0.003-0.062,0.006-0.126,0.009-0.188
				c0.014-0.312,0.025-0.612,0.034-0.908c0.003-0.084,0.006-0.17,0.008-0.253c0.008-0.271,0.014-0.533,0.019-0.789
				c0.002-0.098,0.004-0.196,0.005-0.291c0.003-0.238,0.006-0.467,0.007-0.692c0-0.1,0.001-0.2,0.001-0.297
				c0-0.208-0.001-0.409-0.003-0.604c-0.001-0.104-0.002-0.206-0.003-0.306c-0.003-0.18-0.006-0.352-0.01-0.52
				c-0.002-0.099-0.005-0.194-0.007-0.289c-0.002-0.061-0.003-0.128-0.005-0.188c0,0,0.001,0,0.001,0
				c-0.013-0.343-0.023-0.685-0.037-0.972c-0.003-0.03-0.003-0.05-0.007-0.078c-0.018-0.361-0.039-0.668-0.058-0.912
				c0-0.015-0.002-0.026-0.002-0.042c-0.014-0.167-0.026-0.305-0.038-0.424c0-0.003-0.001-0.007-0.001-0.01
				c-0.004-0.044-0.008-0.091-0.012-0.126c-0.001-0.008-0.001-0.013-0.002-0.021c-0.001-0.019-0.001-0.027-0.003-0.047
				c-0.004-0.031-0.007-0.054-0.01-0.077c-0.001-0.006-0.001-0.01-0.002-0.015c-0.004-0.035-0.006-0.052-0.006-0.052
				s-0.061-0.01-0.143-0.019c-0.031-0.002-0.028-0.002-0.068-0.008c-0.131-0.012-0.318-0.03-0.565-0.049
				c-0.013,0-0.023,0-0.04-0.002c-0.245-0.018-0.554-0.04-0.913-0.06c-0.026-0.004-0.051-0.004-0.076-0.005
				c-0.371-0.019-0.796-0.036-1.272-0.049c-0.027,0-0.054-0.003-0.08-0.003c-0.489-0.01-1.025-0.02-1.622-0.016
				c-0.024,0-0.045,0-0.064,0c-0.607,0-1.261,0.01-1.969,0.031c-0.013,0-0.023,0-0.034,0c-0.687,0.022-1.437,0.06-2.215,0.106
				c-0.202,0.012-0.412,0.026-0.62,0.04c-0.388,0.026-0.778,0.054-1.186,0.087c-0.227,0.018-0.455,0.037-0.689,0.057
				c-0.047,0.004-0.091,0.007-0.138,0.012c-0.174,0.016-0.354,0.034-0.531,0.051c-0.17,0.017-0.34,0.033-0.514,0.051
				c-0.657,0.067-1.329,0.14-2.029,0.228c-0.01,0.001-0.02,0.002-0.029,0.003c-0.513,0.064-1.038,0.134-1.573,0.21
				c-0.168,0.023-0.343,0.052-0.513,0.077c-0.025,0.003-0.05,0.007-0.075,0.011c-0.07,0.01-0.139,0.021-0.208,0.031
				c-0.289,0.043-0.575,0.085-0.869,0.132c-0.238,0.038-0.484,0.081-0.726,0.121c-0.333,0.056-0.664,0.11-1.004,0.171
				c-0.283,0.05-0.573,0.105-0.862,0.159c-0.307,0.057-0.613,0.114-0.926,0.175c-0.205,0.04-0.412,0.082-0.619,0.124
				c-0.027,0.005-0.055,0.011-0.082,0.017c-0.091,0.018-0.184,0.039-0.275,0.057c-0.288,0.06-0.576,0.119-0.869,0.182
				c-0.355,0.076-0.715,0.157-1.077,0.239c-0.156,0.035-0.309,0.067-0.466,0.104c-0.005,0.001-0.009,0.001-0.014,0.003
				c-0.007,0.001-0.013,0.003-0.019,0.004c-0.012,0.003-0.024,0.006-0.037,0.009c-0.008,0.002-0.018,0.003-0.026,0.006
				c-0.09,0.021-0.183,0.045-0.273,0.066c-0.384,0.09-0.772,0.185-1.163,0.281c-0.254,0.063-0.509,0.125-0.766,0.191
				c-0.423,0.108-0.851,0.22-1.282,0.335c-0.235,0.063-0.47,0.126-0.708,0.191c-0.46,0.126-0.923,0.257-1.391,0.392
				c-0.209,0.06-0.418,0.122-0.629,0.184c-0.502,0.148-1.007,0.3-1.518,0.459c-0.177,0.055-0.354,0.111-0.532,0.167
				c-0.493,0.156-0.987,0.314-1.488,0.479c-0.313,0.104-0.627,0.211-0.943,0.319c-0.469,0.16-0.941,0.323-1.416,0.492
				c-0.024,0.008-0.047,0.016-0.07,0.024c-0.033,0.01-0.07,0.027-0.106,0.036c-0.117,0.042-0.237,0.09-0.354,0.132
				c-0.704,0.254-1.414,0.519-2.131,0.793c-0.225,0.086-0.45,0.173-0.676,0.261c-0.726,0.283-1.458,0.579-2.195,0.884
				c-0.184,0.076-0.366,0.149-0.551,0.227c-1.9,0.797-3.837,1.668-5.809,2.62c-0.015,0.007-0.031,0.015-0.046,0.023
				c-0.955,0.461-1.918,0.945-2.888,1.445c-0.125,0.064-0.25,0.13-0.374,0.195c-0.9,0.468-1.806,0.953-2.718,1.456
				c-0.105,0.058-0.21,0.115-0.315,0.174c-4.149,2.302-8.412,4.969-12.748,8.055c-0.009,0.006-0.017,0.012-0.026,0.018
				c-1.092,0.777-2.188,1.581-3.288,2.413c0,0,0,0-0.001,0.001c-3.299,2.494-6.631,5.233-9.98,8.246
				c-0.057,0.051-0.115,0.105-0.172,0.157c-0.865,0.78-1.73,1.577-2.597,2.395c-0.001-0.003-0.002-0.006-0.002-0.009
				c-0.602,0.585-1.213,1.157-1.82,1.741c0,0.002,0.001,0.005,0.002,0.007c-0.559,0.544-1.119,1.106-1.679,1.666
				c-0.176,0.176-0.352,0.34-0.528,0.517c-0.002,0-0.002,0-0.002,0.002c-0.111,0.112-0.222,0.231-0.333,0.344
				c-0.631,0.641-1.262,1.297-1.893,1.958c-0.284,0.296-0.567,0.583-0.852,0.881c-0.073,0.076-0.139,0.153-0.209,0.23
				c-0.016,0.018-0.033,0.035-0.049,0.053c-0.281,0.3-0.562,0.604-0.843,0.908c-0.657,0.708-1.313,1.424-1.967,2.161
				c-0.958,1.071-1.916,2.166-2.873,3.287c-1.698,1.988-3.391,4.067-5.078,6.22c-0.245,0.313-0.491,0.614-0.737,0.93
				c-0.56,0.724-1.118,1.473-1.677,2.214c-0.363,0.481-0.727,0.95-1.088,1.439c-0.024,0.033-0.049,0.064-0.074,0.098l-16.794-2.286
				l-9.621,9.616l-6.45-0.879L20.129,96.574l2.955,1.09l0.004-0.004l27.293,10.025l0.087-0.087
				c-1.206,2.435-2.405,4.909-3.586,7.466c0,0,0.108,0.059,0.205,0.113c0.027,0.018,0.071,0.041,0.118,0.069
				c0.069,0.034,0.156,0.079,0.245,0.126c0.189,0.104,0.424,0.235,0.695,0.388c0.119,0.069,0.252,0.148,0.376,0.22l-0.318,0.318
				l-0.086,0.083l-1.464,1.463l-0.67,0.672l-5.728,5.725c-0.134,0.139-0.252,0.286-0.375,0.431c1.995,1.667,3.957,3.439,5.86,5.357
				c1.807,1.815,3.506,3.661,5.107,5.563c0.137-0.118,0.266-0.236,0.396-0.367l1.114-1.104c-0.026,0.023-0.054,0.047-0.08,0.07
				l9.127-9.125c0.439,0.401,0.869,0.808,1.281,1.221c0.409,0.408,0.812,0.834,1.21,1.27l-1.409,1.405l0.003,0.003l-0.896,0.896l0,0
				l-1.468,1.463l0.003,0.003l-6.393,6.393c-0.136,0.14-0.259,0.285-0.377,0.427c1.994,1.657,3.955,3.445,5.862,5.358
				c1.806,1.795,3.505,3.666,5.105,5.566c0.13-0.119,0.266-0.235,0.394-0.367l1.116-1.105c-0.026,0.022-0.053,0.046-0.079,0.069
				l7.232-7.229c0.584,1.021,0.91,1.642,0.91,1.642c2.559-1.182,5.034-2.381,7.471-3.588l-0.092,0.092l11.104,30.254l0.094-0.09
				l-0.001-0.003l20.075-20.081l-0.877-6.45l9.616-9.612l-2.289-16.803c5.011-3.703,9.612-7.443,13.829-11.196c0,0,0.001,0,0.001,0
				c0.125-0.111,0.24-0.222,0.364-0.333c1.012-0.905,2.003-1.811,2.971-2.717c0.226-0.212,0.445-0.425,0.668-0.637
				c1.826-1.727,3.579-3.454,5.252-5.18c0.181-0.188,0.359-0.374,0.543-0.567c0,0,0,0-0.001,0
				c29.776-31.006,35.591-61.311,36.484-76.026C179.113,19.118,179.115,19.091,179.116,19.066z"/>
			<path d="M57.38,145.885c-11.321,1.299-20.438,11.292-20.438,11.292l7.182-3.053l-1.792,2.097
				c-2.644,2.11-4.217,3.835-4.217,3.835l1.478-0.628l-24.883,29.131l13.422-11.472l-12.247,14.33l30.665-26.213l-0.477,1.12
				c0,0,1.394-1.273,3.209-3.456l1.023-0.875l-3.057,7.184c0,0,10.004-9.109,11.306-20.438c-0.593,0.068-1.179,0.166-1.759,0.279
				C57.057,147.997,57.257,146.951,57.38,145.885z"/>
			<path d="M34.116,151.653l-0.477,1.12c0,0,1.394-1.273,3.209-3.456l1.022-0.874l-3.057,7.184c0,0,10.004-9.109,11.306-20.438
				c-0.594,0.068-1.179,0.165-1.76,0.278c0.262-1.021,0.462-2.067,0.585-3.133c-11.321,1.299-20.438,11.292-20.438,11.292
				l7.182-3.054l-1.792,2.097c-2.644,2.11-4.217,3.835-4.217,3.835l1.478-0.629L2.276,175.008l13.422-11.472l-12.248,14.33
				L34.116,151.653z"/>
		</g>
		<g>
			<g>
				<g>
					<g>
						<g>
							<g>
								<g>
									<polygon fill="#B30000" points="114.052,86.495 119.012,122.897 98.841,143.061 87.728,112.801 									"/>
								</g>
							</g>
						</g>
						<g>
							<g>
								<polygon fill="#B30000" points="90.488,62.94 54.092,57.972 33.924,78.131 64.173,89.244 								"/>
							</g>
						</g>
					</g>
				</g>
				<path fill="#F4DBBD" d="M176.774,0.211c0,0-79.079-9.761-132.169,105.147c0,0,9.657,5.063,15.804,11.225
					c6.145,6.141,11.213,15.793,11.213,15.793C186.533,79.287,176.774,0.211,176.774,0.211z"/>
				<g>
					<path opacity="0.26" fill="#231F20" d="M140.904,65.507c-7.586,7.601-19.896,7.601-27.49,0c-7.592-7.588-7.592-19.887,0-27.492
						c7.595-7.584,19.904-7.584,27.49,0C148.497,45.621,148.497,57.919,140.904,65.507z"/>
					<path fill="#152C47" d="M141.562,62.917c-7.593,7.584-19.901,7.584-27.489,0c-7.594-7.604-7.594-19.904,0-27.486
						c7.587-7.606,19.896-7.606,27.489,0C149.147,43.013,149.147,55.313,141.562,62.917z"/>
					<path fill="#0E2338" d="M147.231,48.316c-0.2,4.69-2.088,9.32-5.669,12.909c-7.593,7.583-19.901,7.583-27.489,0
						c-3.582-3.589-5.478-8.219-5.677-12.909c-0.226,5.267,1.664,10.589,5.677,14.601c7.587,7.584,19.896,7.584,27.489,0
						C145.569,58.905,147.46,53.583,147.231,48.316z"/>
					<path fill="#83D0E3" d="M138.419,59.779c-5.854,5.843-15.349,5.843-21.206,0c-5.86-5.867-5.86-15.364,0-21.206
						c5.858-5.866,15.353-5.866,21.206,0C144.276,44.415,144.276,53.912,138.419,59.779z"/>
					<path fill="#19C0D1" d="M142.731,47.643c-0.334,3.321-1.774,6.549-4.312,9.094c-5.854,5.845-15.349,5.845-21.206,0
						c-2.542-2.545-3.975-5.772-4.313-9.094c-0.438,4.34,0.995,8.817,4.313,12.136c5.858,5.843,15.353,5.843,21.206,0
						C141.731,56.46,143.17,51.983,142.731,47.643z"/>
					<path fill="#A2E7F2" d="M142.076,44.571c-5.952-0.248-20.942-0.527-28.293-0.667c-0.85,2.257-1.131,4.679-0.85,7.046
						l29.745,0.107C142.948,48.895,142.755,46.664,142.076,44.571z"/>
					<path fill="#A2E7F2" d="M116.71,39.119c-0.998,1.107-1.801,2.299-2.409,3.569l27.07,0.1c-0.518-1.092-1.166-2.159-1.971-3.142
						C133.747,39.475,123.746,39.26,116.71,39.119z"/>
				</g>
				<path fill="#ED0000" d="M149.199,27.774c6.238,6.245,13.155,11.003,19.999,14.125c9.741-24.126,7.576-41.688,7.576-41.688
					s-17.565-2.172-41.701,7.577C138.195,14.628,142.959,21.536,149.199,27.774z"/>
			</g>
			<path fill="#ED0000" d="M88.56,39.534c-2.157,2.194-4.322,4.479-6.478,6.906c2.026,10.075,8.119,21.216,17.685,30.785
				c9.568,9.547,20.702,15.658,30.786,17.673c2.422-2.152,4.71-4.308,6.886-6.484c-10.17-1.942-21.447-8.063-31.128-17.741
				C96.64,60.99,90.512,49.721,88.56,39.534z"/>
			<path fill="#ED0000" d="M92.585,35.602c-0.602,0.586-1.213,1.157-1.82,1.741c2.222,10.157,8.399,21.284,17.995,30.878
				c9.593,9.598,20.712,15.772,30.875,17.991c0.589-0.601,1.169-1.201,1.736-1.82c-10.138-2.236-21.236-8.409-30.81-17.981
				C100.998,56.84,94.819,45.759,92.585,35.602z"/>
			<path fill="#B30000" d="M109.625,67.356c-9.544-9.548-15.747-20.589-18.108-30.727c-0.251,0.244-0.502,0.488-0.751,0.714
				c2.222,10.157,8.399,21.284,17.995,30.878c9.593,9.598,20.712,15.772,30.875,17.991c0.244-0.248,0.474-0.493,0.717-0.749
				C130.211,83.104,119.172,76.902,109.625,67.356z"/>
			<linearGradient id="SVGID_1_" gradientUnits="userSpaceOnUse" x1="12.4349" y1="157.5155" x2="55.1034" y2="157.5155">
				<stop  offset="0" style="stop-color:#FFC333"/>
				<stop  offset="0.1547" style="stop-color:#FFBA2A"/>
				<stop  offset="0.4094" style="stop-color:#FFA111"/>
				<stop  offset="0.551" style="stop-color:#FF9100"/>
				<stop  offset="0.7925" style="stop-color:#FF8F00"/>
				<stop  offset="0.8795" style="stop-color:#FF8800"/>
				<stop  offset="0.9413" style="stop-color:#FF7D00"/>
				<stop  offset="0.9912" style="stop-color:#FF6C00"/>
				<stop  offset="1" style="stop-color:#FF6800"/>
			</linearGradient>
			<path fill="url(#SVGID_1_)" d="M55.103,136.179c-11.321,1.299-20.438,11.292-20.438,11.292l7.182-3.054l-29.413,34.435
				l34.42-29.419l-3.057,7.184C43.798,156.618,53.801,147.488,55.103,136.179z"/>
			<g opacity="0.26">
				<path fill="#231F20" d="M53.49,109.648c-2.364-2.363-5.243-4.562-7.895-6.372c-0.333,0.701-0.664,1.379-0.989,2.082
					c0,0,6.437,3.385,12.143,7.97C55.715,112.028,54.626,110.787,53.49,109.648z"/>
			</g>
			<g>
				<g>
					<g>
						<polygon fill="#ED0000" points="74.424,71.67 38.021,66.709 17.853,86.868 48.104,97.979 						"/>
					</g>
				</g>
				<g>
					<polygon fill="#ED0000" points="105.32,102.55 110.273,138.959 90.105,159.133 79.002,128.879 					"/>
				</g>
			</g>
			<g>
				<g>
					<path fill="#152C47" d="M43.465,120.324c1.807,1.815,3.506,3.661,5.107,5.563c0.137-0.118,0.266-0.236,0.396-0.367
						l11.714-11.712c3.02-3.018,3.02-7.965,0-10.984c-3.022-3.017-7.969-3.017-10.985,0l-11.718,11.712
						c-0.134,0.139-0.252,0.286-0.375,0.431C39.599,116.633,41.561,118.406,43.465,120.324z"/>
					<path fill="#0E2338" d="M62.935,108.53c-0.332,0.575-0.739,1.118-1.226,1.625l-11.721,11.712
						c-0.122,0.129-0.259,0.249-0.396,0.347c-1.601-1.879-3.291-3.749-5.107-5.561c-1.458-1.461-2.947-2.843-4.456-4.152
						l-2.051,2.035c-0.134,0.139-0.252,0.286-0.375,0.431c1.995,1.667,3.957,3.439,5.86,5.357c1.807,1.815,3.506,3.661,5.107,5.563
						c0.137-0.118,0.266-0.236,0.396-0.367l11.714-11.712C62.139,112.352,62.888,110.437,62.935,108.53z"/>
					<path fill="#EEE6DB" d="M44.582,119.196c-1.906-1.891-3.866-3.682-5.862-5.356c0.126-0.145,0.242-0.292,0.377-0.407
						l-1.117,1.104c-0.134,0.139-0.252,0.286-0.375,0.431c1.995,1.667,3.957,3.439,5.86,5.357c1.807,1.815,3.506,3.661,5.107,5.563
						c0.137-0.118,0.266-0.236,0.396-0.367l1.114-1.104c-0.129,0.115-0.257,0.227-0.393,0.344
						C48.089,122.881,46.392,121.012,44.582,119.196z"/>
					<polygon fill="#ED0000" points="57.722,116.762 46.738,105.778 49.665,102.854 60.653,113.839 					"/>
					<polygon fill="#B30000" points="59.337,112.525 56.404,115.451 57.722,116.762 60.653,113.839 					"/>
					
						<rect x="42.834" y="111.865" transform="matrix(0.7071 0.7071 -0.7071 0.7071 94.6559 -2.7121)" fill="#ED0000" width="15.535" height="2.069"/>
					<polygon fill="#B30000" points="55.505,116.351 54.043,117.81 55.362,119.124 56.826,117.662 					"/>
				</g>
				<g>
					<path fill="#152C47" d="M56.945,133.799c1.806,1.795,3.505,3.666,5.105,5.566c0.13-0.119,0.266-0.235,0.394-0.367
						l11.713-11.709c3.02-3.019,3.02-7.97,0-10.986c-3.02-3.017-7.965-3.017-10.986,0L51.46,128.014
						c-0.136,0.14-0.259,0.285-0.378,0.428C53.077,130.098,55.038,131.886,56.945,133.799z"/>
					<path fill="#0E2338" d="M76.412,122.008c-0.333,0.576-0.737,1.117-1.234,1.625l-11.713,11.714
						c-0.128,0.128-0.258,0.224-0.394,0.342c-1.6-1.878-3.297-3.745-5.106-5.564c-1.458-1.457-2.945-2.836-4.465-4.149l-2.039,2.038
						c-0.136,0.14-0.259,0.285-0.378,0.428c1.994,1.656,3.955,3.444,5.862,5.357c1.806,1.795,3.505,3.666,5.105,5.566
						c0.13-0.119,0.266-0.235,0.394-0.367l11.713-11.709C75.615,125.833,76.361,123.918,76.412,122.008z"/>
					<path fill="#EEE6DB" d="M58.057,132.673c-1.903-1.899-3.862-3.682-5.859-5.354c0.117-0.146,0.24-0.292,0.375-0.413
						l-1.113,1.108c-0.136,0.14-0.259,0.285-0.378,0.428c1.994,1.656,3.955,3.444,5.862,5.357c1.806,1.795,3.505,3.666,5.105,5.566
						c0.13-0.119,0.266-0.235,0.394-0.367l1.116-1.105c-0.129,0.113-0.259,0.227-0.396,0.347
						C61.565,136.355,59.866,134.493,58.057,132.673z"/>
					<polygon fill="#ED0000" points="71.195,130.243 60.21,119.257 63.144,116.333 74.129,127.315 					"/>
					<polygon fill="#B30000" points="72.806,126.004 69.879,128.931 71.195,130.243 74.129,127.315 					"/>
					<polygon fill="#ED0000" points="68.834,132.604 57.85,121.619 59.318,120.156 70.303,131.14 					"/>
					<polygon fill="#B30000" points="68.984,129.828 67.519,131.292 68.834,132.604 70.303,131.14 					"/>
				</g>
			</g>
			<g>
				<path fill="#FFFFFF" d="M44.605,105.358c0,0,0.108,0.059,0.205,0.113c0.027,0.018,0.071,0.04,0.118,0.068
					c0.174,0.086,0.416,0.213,0.711,0.382c0.042,0.024,0.097,0.054,0.141,0.081c0.137,0.077,0.314,0.186,0.471,0.275l-0.41,0.397
					l0,0l-1.464,1.463l0,0L40.03,112.5l-0.936,0.935c0,0,0.002,0,0.002-0.003l-1.114,1.104c-0.138,0.139-0.255,0.286-0.378,0.431
					c0.716,0.595,1.423,1.225,2.129,1.851l0.539-0.529h-0.003l0.937-0.935l4.346-4.339l0,0l1.464-1.462l0,0l0.409-0.422
					c-0.156-0.088-0.334-0.196-0.471-0.273c-0.043-0.025-0.097-0.053-0.14-0.076c-0.295-0.154-0.537-0.294-0.712-0.389
					c-0.046-0.025-0.089-0.048-0.117-0.065c-0.097-0.053-0.206-0.112-0.206-0.112c0.325-0.704,0.656-1.382,0.99-2.077
					c0.853-1.827,1.717-3.62,2.588-5.363l-0.079,0.081l-2.135-0.785c-0.519,1.056-1.04,2.118-1.55,3.207
					C45.262,103.975,44.93,104.655,44.605,105.358z"/>
				<path fill="#FFFFFF" d="M39.195,69.564l6.454,0.882l9.618-9.617l16.793,2.295c3.702-5.007,7.44-9.604,11.197-13.83l0,0
					c0.005-0.008,0.01-0.014,0.016-0.019c1.055-1.178,2.11-2.334,3.172-3.463c0.072-0.064,0.137-0.137,0.21-0.215
					c1.029-1.101,2.051-2.146,3.078-3.185c0-0.004,0-0.004,0-0.004c18.017-18.176,35.945-28.084,50.896-33.431
					c0.035-0.015,0.073-0.026,0.108-0.039c1.408-0.499,2.794-0.953,4.145-1.388c0.054-0.017,0.109-0.035,0.16-0.052
					c1.343-0.42,2.66-0.803,3.95-1.148c0.048-0.015,0.095-0.028,0.136-0.041c1.295-0.349,2.559-0.664,3.786-0.943
					c0.025-0.005,0.053-0.011,0.083-0.018c7.527-1.745,13.757-2.31,18.106-2.446c0.012,0,0.021,0,0.035,0
					c0.708-0.024,1.36-0.032,1.971-0.035c0.019,0,0.038-0.002,0.062-0.002c0.597,0,1.131,0.007,1.621,0.02c0.027,0,0.054,0,0.081,0
					c0.476,0.015,0.902,0.03,1.271,0.048c0.026,0.004,0.049,0.006,0.077,0.006c0.285,0.017,0.509,0.033,0.732,0.048
					c-0.013-0.343-0.023-0.685-0.037-0.972c-0.003-0.03-0.003-0.05-0.007-0.078c-0.018-0.361-0.038-0.668-0.058-0.912
					c0-0.015-0.002-0.026-0.002-0.043c-0.019-0.234-0.037-0.431-0.052-0.563c-0.002-0.038-0.002-0.037-0.004-0.063
					c-0.011-0.084-0.017-0.143-0.017-0.143s-0.061-0.01-0.143-0.019c-0.031-0.003-0.028-0.003-0.068-0.009
					c-0.131-0.011-0.318-0.03-0.565-0.048c-0.013,0-0.023,0-0.04-0.002c-0.245-0.018-0.554-0.04-0.913-0.059
					c-0.026-0.004-0.051-0.004-0.076-0.005c-0.371-0.019-0.796-0.036-1.272-0.049c-0.027,0-0.054-0.003-0.08-0.003
					c-0.489-0.01-1.025-0.019-1.622-0.015c-0.025,0-0.046,0-0.064,0c-0.607,0-1.261,0.009-1.969,0.031c-0.013,0-0.023,0-0.034,0
					c-4.35,0.138-10.584,0.714-18.108,2.448c-0.03,0.005-0.056,0.011-0.082,0.019c-1.226,0.281-2.489,0.606-3.784,0.954
					c-0.041,0.013-0.089,0.028-0.136,0.039c-1.291,0.349-2.608,0.732-3.951,1.152c-0.051,0.019-0.105,0.035-0.159,0.048
					c-1.351,0.418-2.737,0.882-4.146,1.389c-0.033,0.01-0.07,0.027-0.107,0.036c-14.951,5.344-32.878,15.26-50.895,33.417
					c-0.002,0-0.002,0-0.002,0.002c-1.025,1.039-2.049,2.105-3.078,3.184c-0.073,0.076-0.139,0.153-0.209,0.231
					c-1.062,1.137-2.117,2.271-3.173,3.47c-0.005,0.006-0.011,0.011-0.016,0.021l0,0c-3.756,4.203-7.495,8.813-11.197,13.818
					l-16.794-2.286l-9.617,9.619l-6.454-0.882L17.853,86.868l2.955,1.091L39.195,69.564z"/>
				<path fill="#FFFFFF" d="M80.177,131.734l0.073-0.079c-0.06,0.031-0.13,0.063-0.194,0.094l10.049,27.385l0.094-0.09
					L80.177,131.734z"/>
				<path fill="#FFFFFF" d="M61.585,119.436c-0.251-0.262-0.528-0.498-0.791-0.755l-7.294,7.295l-2.039,2.038
					c-0.136,0.14-0.259,0.285-0.378,0.428c0.716,0.599,1.422,1.228,2.129,1.852l1.463-1.462l8.126-8.126
					C62.399,120.278,61.994,119.838,61.585,119.436z"/>
			</g>
			<path fill="#FFFFFF" d="M35.84,150.35l7.185-3.057L13.609,181.71l34.42-29.423l-3.057,7.184c0,0,10.004-9.109,11.306-20.438
				C44.957,140.333,35.84,150.35,35.84,150.35z"/>
			<linearGradient id="SVGID_2_" gradientUnits="userSpaceOnUse" x1="2.229584e-005" y1="143.9648" x2="42.6685" y2="143.9648">
				<stop  offset="0" style="stop-color:#FFC333"/>
				<stop  offset="0.1547" style="stop-color:#FFBA2A"/>
				<stop  offset="0.4094" style="stop-color:#FFA111"/>
				<stop  offset="0.551" style="stop-color:#FF9100"/>
				<stop  offset="0.7925" style="stop-color:#FF8F00"/>
				<stop  offset="0.8795" style="stop-color:#FF8800"/>
				<stop  offset="0.9413" style="stop-color:#FF7D00"/>
				<stop  offset="0.9912" style="stop-color:#FF6C00"/>
				<stop  offset="1" style="stop-color:#FF6800"/>
			</linearGradient>
			<path fill="url(#SVGID_2_)" d="M42.669,122.628c-11.321,1.299-20.438,11.292-20.438,11.292l7.182-3.054L0,165.301l34.42-29.419
				l-3.057,7.185C31.363,143.067,41.366,133.937,42.669,122.628z"/>
			<path fill="#FFFFFF" d="M23.405,136.799l7.185-3.057L1.174,168.16l34.42-29.423l-3.057,7.184c0,0,10.004-9.109,11.306-20.438
				C32.522,126.782,23.405,136.799,23.405,136.799z"/>
		</g>
	</g>
</g>
<g id="datos">
</g>
<g id="guia" display="none">
</g>
</svg>
