<?xml version="1.0" encoding="utf-8"?>
<!-- Generator: Adobe Illustrator 17.0.0, SVG Export Plug-In . SVG Version: 6.00 Build 0)  -->
<!DOCTYPE svg PUBLIC "-//W3C//DTD SVG 1.1//EN" "http://www.w3.org/Graphics/SVG/1.1/DTD/svg11.dtd">
<svg version="1.1" xmlns="http://www.w3.org/2000/svg" xmlns:xlink="http://www.w3.org/1999/xlink" x="0px" y="0px"
	 width="1016.445px" height="104.74px" viewBox="0 0 1016.445 104.74" enable-background="new 0 0 1016.445 104.74"
	 xml:space="preserve">
<g id="Capa_4">
	<g>
		<path fill="#FFFFFF" d="M1021.551,217.078c-22.665,8.4-24.031-16.015-24.031-16.015c-9.103,10.514-20.088,5.037-20.088,5.037
			c-18.88-8.418-10.926-21.516-10.926-21.516c-3.432,5.389-14.42,5.157-14.42,5.157c-14.41,0.232-17.624-11.222-17.624-11.222
			c-10.755,6.883-17.846-3.888-17.846-3.888c-15.102,43.248-45.09,26.993-45.09,26.993c-16.935,22.656-35.693,4.362-35.693,4.362
			c-9.396,22.199-35.709,27.443-35.709,27.443c-41.43,7.798-51.951-34.592-51.951-34.592c-16.929,11.175-29.521-8.633-29.521-8.633
			c4.571,9.831-2.742,18.288-2.742,18.288c-5.728,8.475-19.458,4.345-19.458,4.345c-3.887,50.811-62.712,42.797-62.712,42.797
			c-58.58-8.688-48.285-63.153-48.285-63.153c-2.287,10.532-11.897,9.83-11.897,9.83c-10.079-1.829-10.534-21.496-10.534-21.496
			c-21.066,19.895-43.087,10.533-43.087,10.533c-25.239-13.271-19.621-40.514-19.621-40.514
			c-6.397,10.536-22.205,8.924-22.205,8.924c-15.334,0.686-16.929-12.125-16.929-12.125c-29.745,15.568-49.894-6.871-49.894-6.871
			c5.948,17.17-4.165,45.329-42.16,54.93c-37.994,9.617-55.56-32.49-55.56-32.49c-50.348,41.402-78.961-2.294-78.961-2.294
			c-17.161,42.334-57.443,19.229-57.443,19.229s5.494,11.429-10.529,18.523c-16.019,7.094-33.871-9.604-33.871-9.604
			c3.432,5.259-1.374,16.698-1.374,16.698c-7.322,15.333-22.088,4.793-22.088,4.793c1.716,5.149,4.121,45.323-46.683,46.357
			c-50.804,1.024-64.683-39.938-64.683-39.938V87.181h1023.616V217.078z"/>
		<path fill="#FFFFFF" d="M555.282,30.048c0,0-22.561-34.453-62.259-1.809c0,0-13.85-33.201-43.808-25.618
			c-29.958,7.57-37.932,29.773-33.242,43.311c0,0-30.569,0.314-30.569,19.314c-3.667-8.64-15-17.667-29-8.64
			c0-13.694-0.712-29.123-10.667-29.36c-14-0.333-19.333,17.591-19.333,17.591s-16.667-11.925-33,14.409
			c-9.333-24.333-32.518-41.334-43.74-13.778c-5.593-15.556-28.514-23.761-37.536-23.761c-24.416,0-36.186,17.281-42.724,34.899
			c-8.565-12.791-28.002-32.694-51-32.694c-12.789,0-38.719,8.417-52.975,15.357C25.827,17.425-2.066,38.468-2.066,45.482
			c0,10.675,0,42.699,0,42.699h1023.616V31.598c-0.158,0.048-0.323,0.082-0.48,0.132c-21.443,6.863-40,22.976-40,22.976
			s-11.866-39.569-42-39.569c-35,0-44,27.953-46,44.803c-10-28.21-39-5.234-39-5.234s-7.028-34.859-43-37.281
			c-34-2.289-49.679,47.664-52.385,32.492c0.719-27.67-49.615-34.781-61.281-15.337c-25-10.333-47,4.667-47.333,29.667
			c-14.333-15-32.333-4.667-38,9.333c0,0-0.369-29.261-13-23.667C599.071,49.914,592.16,8.849,555.282,30.048z"/>
	</g>
</g>
<g id="fondo">
</g>
<g id="LOGO">
</g>
<g id="datos">
</g>
<g id="guia" display="none">
</g>
</svg>
