<?xml version="1.0" encoding="utf-8"?>
<!-- Generator: Adobe Illustrator 17.0.0, SVG Export Plug-In . SVG Version: 6.00 Build 0)  -->
<!DOCTYPE svg PUBLIC "-//W3C//DTD SVG 1.1//EN" "http://www.w3.org/Graphics/SVG/1.1/DTD/svg11.dtd">
<svg version="1.1" xmlns="http://www.w3.org/2000/svg" xmlns:xlink="http://www.w3.org/1999/xlink" x="0px" y="0px"
	 width="167.191px" height="83.876px" viewBox="0 0 167.191 83.876" enable-background="new 0 0 167.191 83.876"
	 xml:space="preserve">
<g id="Capa_4">
</g>
<g id="fondo">
</g>
<g id="LOGO">
</g>
<g id="datos">
	<g>
		<path d="M57.289,0C40.615,0,27.105,13.516,27.105,30.19c0,2.445,0.297,4.822,0.846,7.097c-1.44-0.271-2.925-0.419-4.447-0.419
			C10.523,36.869,0,47.391,0,60.375c0,12.979,10.523,23.5,23.503,23.5h63.47V24.721C84.397,10.661,72.09,0,57.289,0z"/>
		<g>
			<path fill="#7A7B7B" d="M29.924,37.287c-0.547-2.275-0.844-4.652-0.844-7.097c0-16.361,13.019-29.646,29.251-30.143
				C57.981,0.037,57.64,0,57.289,0C40.615,0,27.105,13.516,27.105,30.19c0,2.345,0.287,4.62,0.796,6.809
				C28.583,37.07,29.26,37.167,29.924,37.287z"/>
			<path fill="#7A7B7B" d="M1.974,60.375c0-12.658,10.006-22.95,22.536-23.464c-0.336-0.013-0.664-0.043-1.006-0.043
				C10.523,36.869,0,47.391,0,60.375c0,12.979,10.523,23.5,23.503,23.5h1.977C12.498,83.876,1.974,73.354,1.974,60.375z"/>
		</g>
		<path fill="#333333" d="M167.191,64.115c0-10.914-8.854-19.758-19.765-19.758c-3.769,0-7.278,1.071-10.27,2.899
			c-2.096-15.85-15.643-28.082-32.066-28.082c-6.71,0-12.951,2.045-18.116,5.546v59.155h60.453
			C158.337,83.876,167.191,75.035,167.191,64.115z"/>
		<g>
			<path fill="#7A7B7B" d="M135.676,47.256c0.432-0.265,0.895-0.479,1.349-0.709c-2.402-15.503-15.765-27.373-31.936-27.373
				c-0.273,0-0.54,0.022-0.808,0.03C120.395,19.537,133.611,31.626,135.676,47.256z"/>
			<path fill="#7A7B7B" d="M147.426,44.357c-0.214,0-0.409,0.033-0.62,0.039c10.516,0.458,18.898,9.098,18.898,19.719
				c0,10.919-8.846,19.76-19.76,19.76h1.482c10.912,0,19.765-8.841,19.765-19.76C167.191,53.202,158.337,44.357,147.426,44.357z"/>
		</g>
		<path fill="#1A1A1A" d="M67.899,0c-9.948,0-18.006,13.516-18.006,30.19c0,2.445,0.176,4.822,0.501,7.097
			c-0.855-0.271-1.742-0.419-2.652-0.419c-7.744,0-14.022,10.523-14.022,23.507c0,12.979,6.278,23.5,14.022,23.5h39.231V24.721
			C85.433,10.661,76.734,0,67.899,0z"/>
		<g>
			<path fill="#333333" d="M35.202,60.375c0-12.573,5.89-22.812,13.295-23.45c-0.249-0.024-0.496-0.057-0.754-0.057
				c-7.744,0-14.022,10.523-14.022,23.507c0,12.979,6.278,23.5,14.022,23.5h1.48C41.478,83.876,35.202,73.354,35.202,60.375z"/>
			<path fill="#333333" d="M51.879,37.287c-0.326-2.275-0.509-4.652-0.509-7.097c0-16.28,7.69-29.513,17.315-30.132
				C68.426,0.041,68.159,0,67.899,0c-9.948,0-18.006,13.516-18.006,30.19c0,2.329,0.167,4.592,0.471,6.768
				C50.874,37.027,51.382,37.135,51.879,37.287z"/>
		</g>
		<path fill="#4D4D4D" d="M133.463,64.115c0-10.914-5.274-19.758-11.792-19.758c-2.243,0-4.338,1.071-6.124,2.899
			c-1.247-15.85-9.33-28.082-19.126-28.082c-4.006,0-6.363,2.045-9.448,5.546v59.155h34.698
			C128.189,83.876,133.463,75.035,133.463,64.115z"/>
		<g>
			<path fill="#808080" d="M121.671,44.357c-0.148,0-0.297,0.039-0.45,0.05c6.217,0.559,11.156,9.152,11.156,19.707
				c0,10.919-5.276,19.76-11.79,19.76h1.084c6.518,0,11.792-8.841,11.792-19.76C133.463,53.202,128.189,44.357,121.671,44.357z"/>
			<path fill="#808080" d="M114.462,47.256c0.317-0.323,0.654-0.594,0.99-0.874c-1.471-15.411-9.42-27.208-19.031-27.208
				c-0.207,0-0.393,0.024-0.589,0.035C105.403,19.625,113.238,31.684,114.462,47.256z"/>
		</g>
	</g>
</g>
<g id="guia" display="none">
</g>
</svg>
