<?xml version="1.0" encoding="utf-8"?>
<!-- Generator: Adobe Illustrator 17.0.0, SVG Export Plug-In . SVG Version: 6.00 Build 0)  -->
<!DOCTYPE svg PUBLIC "-//W3C//DTD SVG 1.1//EN" "http://www.w3.org/Graphics/SVG/1.1/DTD/svg11.dtd">
<svg version="1.1" xmlns="http://www.w3.org/2000/svg" xmlns:xlink="http://www.w3.org/1999/xlink" x="0px" y="0px"
	 width="1049.578px" height="100.422px" viewBox="0 0 1049.578 100.422" enable-background="new 0 0 1049.578 100.422"
	 xml:space="preserve">
<g id="Capa_4">
	<path opacity="0.1" fill="#FFFFFF" d="M1054.216,97.886c-20.097-10.15-35.889-28.98-35.889-28.98s-17.941,37.211-47.7,32.472
		c-34.565-5.504-39.057-34.524-38.382-51.479c-14.312,26.286-39.338-0.964-39.338-0.964s-12.422,33.321-48.328,30.055
		c-33.937-3.087-41.566-54.883-46.624-40.326c-3.641,27.439-54.467,26.546-62.931,5.509c-23.567,5.618-41.549-8.458-42.461-29.231
		l4.939-31.02l366.064,58.29l-8.898,55.879C1054.521,98.02,1054.363,97.961,1054.216,97.886z"/>
	<path opacity="0.1" fill="#FFFFFF" d="M103.631,77.594c6.402,3.17,14.804,3.23,22.481-4.819
		c3.206,13.313,7.511,28.147,17.245,26.047c13.689-2.954,14.677-21.629,14.677-21.629s18.996,7.691,28.709-21.734
		c14.771,21.471,41.292,32.571,45.75,3.153c9.08,13.814,33.285,16.425,42.056,14.312c23.737-5.717,31.134-25.273,33.365-43.932
		c11.322,10.43,34.878,25.228,57.237,19.843c12.433-2.994,35.672-17.249,47.907-27.334c43.616,11.966,65.807-15.022,64.164-21.841
		c-2.499-10.378-9.998-41.512-9.998-41.512L96.374,47.461L103.631,77.594z"/>
	<path fill="none" d="M446.101,0h0.537c-0.276-0.778-0.518-1.532-0.721-2.237C446.005-1.503,446.064-0.755,446.101,0z"/>
	<g>
		<path fill="#FFFFFF" d="M1049.578,0H764.226c10.364,22.158,19.5,23.526,26.84,22.877c6.23-0.54,11.63-1.01,16.55-4.24
			c-3.85,12.48,0.62,30.81,22.27,44.14c26.3,16.22,49.47-11.29,49.47-11.29c28.08,43.04,59.94,16.95,59.94,16.95
			c28.82,31.27,47.73-5.82,47.73-5.82c5.19,4.56,10.07-0.11,13.64-5.93c1.17,4.04,11.01,14.56,19.829,18.313
			c12.81,5.45,23.422-5.173,29.082-7.286V0z"/>
		<path fill="#FFFFFF" d="M446.101,0H0v76.318c9.17,11.249,25.666,22.497,53.546,23.885c73.695,3.669,89.24-39.979,87.67-45.2
			c0.5,0.36,14.63,10.62,22.18-4.27c0,0,5.09-11.32,1.78-16.66c0,0,17.45,17.13,33.63,10.43c2.72-1.13,4.84-2.39,6.47-3.72
			c8.12-6.55,4.5-14.55,4.5-14.55s39.72,24.07,57.9-17.83c0,0,15.07,24.29,43.7,20.66l3.74-0.62c9.2-1.88,19.69-6.65,31.44-15.83
			c0,0,16.54,42.52,54.75,33.83c21.45-4.86,34.26-15.79,40.39-27.5c0.58-1.1,1.1-2.21,1.56-3.32
			C445.46,10.314,446.342,4.946,446.101,0z"/>
		<path fill="#FFFFFF" d="M446.638,0c3.181,8.97,11.481,21.649,32.139,11.463c0,0,8.67,13.11,23.82,15.54
			c4.8,0.77,10.26-0.67,15.36-3.75c4.2-2.51,8.15-6.15,11.28-10.58c1.72-2.41,3.19-5.06,4.32-7.9c0,0-2.42,15.33,6.2,22.8
			c0.01,0,0.01,0,0.01,0.01c2.16,1.87,5.02,3.24,8.77,3.76c26.02,3.61,29.88-16.89,29.28-30.42c0.7,0.72,1.41,1.4,2.14,2.04
			c17.9,15.96,45.91,14.17,45.91,14.17c6.62,18.96,32.16,27.5,46.35,25.42c38.78-5.67,42.96-26,42.96-26
			c1.4,7.67,11.04,23.94,28.4,19.69C758.406,32.618,763.53,25.081,763.795,0H446.638z"/>
	</g>
	
		<line fill="none" stroke="#FFFFFF" stroke-width="0" stroke-linecap="round" stroke-linejoin="round" x1="446.101" y1="0" x2="446.638" y2="0"/>
	
		<line fill="none" stroke="#FFFFFF" stroke-width="0" stroke-linecap="round" stroke-linejoin="round" x1="763.795" y1="0" x2="446.638" y2="0"/>
	<path fill="none" stroke="#FFFFFF" stroke-width="0" stroke-linecap="round" stroke-linejoin="round" d="M446.101,0"/>
</g>
<g id="fondo">
</g>
<g id="LOGO">
</g>
<g id="datos">
</g>
<g id="guia" display="none">
</g>
</svg>
