<?xml version="1.0" encoding="utf-8"?>
<!-- Generator: Adobe Illustrator 17.0.0, SVG Export Plug-In . SVG Version: 6.00 Build 0)  -->
<!DOCTYPE svg PUBLIC "-//W3C//DTD SVG 1.1//EN" "http://www.w3.org/Graphics/SVG/1.1/DTD/svg11.dtd">
<svg version="1.1" xmlns="http://www.w3.org/2000/svg" xmlns:xlink="http://www.w3.org/1999/xlink" x="0px" y="0px"
	 width="1016.445px" height="201.2px" viewBox="0 0 1016.445 201.2" enable-background="new 0 0 1016.445 201.2"
	 xml:space="preserve">
<g id="Capa_4">
	<path opacity="0.1" fill="#FFFFFF" d="M152.804,121.876c0,0-22.625,12.256-38.467-12.865c-2.969-1.044-5.036-2.518-5.036-2.518
		c1.716,5.148,4.121,45.323-46.683,46.357c-30.227,0.609-47.381-13.643-56.32-25.289v27.673c0,0,2.483,40.962,53.287,39.938
		c50.804-1.034,48.399-41.208,46.684-46.357c0,0,14.766,10.54,22.088-4.793c0,0,4.805-11.439,1.374-16.698
		c0,0,17.852,16.698,33.871,9.604c2.657-1.176,4.712-2.473,6.309-3.816C164.536,132.549,158.565,129.583,152.804,121.876z"/>
	<path opacity="0.1" fill="#FFFFFF" d="M497.281,89.1c-6.397,10.537-22.205,8.924-22.205,8.924
		c-15.333,0.686-16.929-12.125-16.929-12.125c-29.745,15.568-49.894-6.871-49.894-6.871c5.948,17.17-4.165,45.329-42.16,54.93
		c-37.994,9.617-55.56-32.491-55.56-32.491c-50.348,41.402-78.961-2.293-78.961-2.293c-17.161,42.334-57.443,19.229-57.443,19.229
		s3.813,7.952-4.22,14.708c10.421,1.089,18.588-6.873,18.588-6.873c9.396,22.199,35.709,27.443,35.709,27.443
		c41.43,7.798,51.951-34.592,51.951-34.592c16.929,11.175,29.521-8.633,29.521-8.633c-4.571,9.832,2.742,18.289,2.742,18.289
		c5.728,8.475,19.458,4.345,19.458,4.345c3.887,50.811,62.712,42.797,62.712,42.797c58.58-8.688,48.286-63.153,48.286-63.153
		c2.287,10.533,11.897,9.83,11.897,9.83c10.079-1.829,10.534-21.496,10.534-21.496c15.647,14.777,31.813,13.413,39.099,11.733
		C494.846,100.934,497.281,89.1,497.281,89.1z"/>
	<g opacity="0.1">
		<path fill="#FFFFFF" d="M1008.757,114.484c-5.946,5.399-13.768,8.02-13.785,8.02c1.179,12.031-7.82,27.275-21.103,21.75
			c-18.473-7.61-10.52-20.768-10.487-20.775c-3.396,5.211-14.046,4.971-14.054,4.967c-13.917,0.192-17.583-11.007-17.65-11.01
			c-10.127,6.586-17.963-4.139-18.095-4.17c-2.312,9.558-6.019,16.176-10.123,20.711c6.494,1.708,12.914-3.043,12.908-3.028
			c-1.106,5.553,23.837,51.728,70.539,32.375c23.498-10.188,32.036-37.936,26.576-48.482c-0.001-0.001-0.003-0.002-0.003-0.005
			C1011.685,114.974,1010.125,114.829,1008.757,114.484z"/>
	</g>
	<g opacity="0.1">
		<path fill="#FFFFFF" d="M735.072,97.926c5.342,2.063,10.474,2.923,15.37,3.302c-2.166-3.857-2.194-6.383-2.269-6.392
			C743.093,98.048,738.975,98.603,735.072,97.926z"/>
	</g>
	<path opacity="0.2" fill="#FFFFFF" d="M995.681,122.114c2.11,12.25-7.61,27.88-21.28,22.25c-18.57-7.64-11.38-20.74-10.95-21.49
		c-3.45,5.36-14.4,5.13-14.4,5.13c-14.41,0.23-17.62-11.22-17.62-11.22c-10.76,6.88-17.85-3.89-17.85-3.89
		c-3.41,9.78-7.59,16.51-12.01,21.08c-15.12,15.64-33.08,5.91-33.08,5.91c-16.93,22.66-35.69,4.37-35.69,4.37
		c-9.4,22.2-35.71,27.44-35.71,27.44c-41.43,7.8-51.95-34.59-51.95-34.59c-16.52,10.9-28.9-7.68-29.5-8.6
		c4.54,9.82-2.76,18.25-2.76,18.25c-5.73,8.48-19.46,4.35-19.46,4.35c-3.89,50.81-62.71,42.8-62.71,42.8
		c-57.15-8.48-48.75-60.53-48.31-63.06c-2.33,10.44-11.88,9.73-11.88,9.73c-10.08-1.83-10.53-21.49-10.53-21.49
		c-21.07,19.89-43.09,10.53-43.09,10.53c-8.6-4.53-13.62-10.67-16.49-16.81c-5.57-11.87-3.13-23.7-3.13-23.7
		c-6.4,10.53-22.2,8.92-22.2,8.92c-15.34,0.69-16.93-12.13-16.93-12.13c-29.75,15.57-49.9-6.87-49.9-6.87
		c5.95,17.17-4.16,45.33-42.16,54.93c-37.99,9.62-55.56-32.49-55.56-32.49c-50.35,41.4-78.96-2.29-78.96-2.29
		c-17.16,42.33-57.44,19.23-57.44,19.23s3.81,7.95-4.22,14.71c-5.37-0.57-11.35-3.53-17.11-11.24c0,0-22.62,12.26-38.46-12.86
		c4.97,1.74,12.47,2.28,17.05-7.32c0,0,4.8-11.43,1.37-16.69c0,0,17.85,16.69,33.87,9.6c16.03-7.09,10.53-18.52,10.53-18.52
		s40.28,23.1,57.44-19.23c0,0,28.62,43.69,78.97,2.29c0,0,17.56,42.11,55.56,32.49c37.99-9.6,48.1-37.76,42.16-54.93
		c0,0,20.14,22.44,49.89,6.87c0,0,1.59,12.81,16.93,12.13c0,0,15.81,1.61,22.2-8.93c0,0-5.61,27.25,19.62,40.52
		c0,0,1.2,0.5,3.28,1.03c6.89,1.74,23.63,3.72,39.81-11.56c0,0,0.46,19.66,10.54,21.49c0,0,9.55,0.7,11.87-9.73
		c-0.44,2.53-8.84,54.58,48.31,63.05c0,0,58.82,8.02,62.71-42.79c0,0,13.73,4.13,19.46-4.35c0,0,5.37-6.22,4.02-14.2
		c2.04,1.34,4.04,2.53,5.99,3.6c2.46,1.86,5.46,3.48,8.88,4.09c5.62,2.1,10.83,3.1,15.64,3.3c4.88,11.54,18.56,34.01,49.68,28.15
		c0,0,23.59-4.72,34.07-24.07c1.54-0.37,2.99-0.79,4.31-1.23c1.92,1.34,4.75,3,8.16,3.99c6.88,1.98,16.12,1.21,24.87-10.5
		c0,0,29.98,16.26,45.09-26.99c0,0,7.09,10.77,17.84,3.89c0,0,3.22,11.45,17.63,11.22c0,0,10.94,0.23,14.4-5.13
		c-0.41,0.72-7.4,13.31,10.94,21.49c0,0,10.99,5.48,20.09-5.04c0,0,0.81,14.34,11.4,17.25
		C1003.571,119.545,995.681,122.114,995.681,122.114z"/>
	<g opacity="0.1">
		<path fill="#FFFFFF" d="M834.195,105.306c1.574-0.457,2.967-0.815,4.24-1.233c-1.639-1.189-2.584-2.072-2.602-2.088
			C835.359,103.113,834.878,104.196,834.195,105.306z"/>
	</g>
	<g opacity="0.1">
		<path fill="#FFFFFF" d="M718.651,86.148c0.742,1.444,1.145,2.788,1.36,4.085c1.962,1.299,3.881,2.386,5.913,3.604
			C721.304,90.288,718.801,86.298,718.651,86.148z"/>
	</g>
	<g>
		<path fill="#FFFFFF" d="M1021.551,112.338c-22.665,8.4-24.031-16.015-24.031-16.015c-9.103,10.514-20.088,5.037-20.088,5.037
			c-18.88-8.418-10.926-21.516-10.926-21.516c-3.432,5.389-14.42,5.157-14.42,5.157c-14.41,0.232-17.624-11.222-17.624-11.222
			c-10.755,6.883-17.846-3.888-17.846-3.888c-15.102,43.248-45.09,26.993-45.09,26.993c-16.935,22.656-35.693,4.362-35.693,4.362
			c-9.396,22.199-35.709,27.443-35.709,27.443c-41.43,7.798-51.951-34.592-51.951-34.592c-16.929,11.175-29.521-8.633-29.521-8.633
			c4.571,9.831-2.742,18.288-2.742,18.288c-5.728,8.475-19.458,4.345-19.458,4.345c-3.887,50.811-62.712,42.797-62.712,42.797
			c-58.58-8.688-48.285-63.153-48.285-63.153c-2.287,10.533-11.897,9.83-11.897,9.83c-10.079-1.829-10.534-21.496-10.534-21.496
			c-21.066,19.895-43.087,10.533-43.087,10.533c-25.239-13.271-19.621-40.514-19.621-40.514
			c-6.397,10.536-22.205,8.924-22.205,8.924c-15.334,0.686-16.929-12.125-16.929-12.125c-29.745,15.568-49.894-6.871-49.894-6.871
			c5.948,17.17-4.165,45.329-42.16,54.93c-37.994,9.617-55.56-32.49-55.56-32.49c-50.348,41.402-78.961-2.294-78.961-2.294
			c-17.161,42.334-57.443,19.229-57.443,19.229s5.494,11.429-10.529,18.523c-16.019,7.094-33.871-9.604-33.871-9.604
			c3.432,5.259-1.374,16.698-1.374,16.698c-7.322,15.333-22.088,4.793-22.088,4.793c1.716,5.149,4.121,45.323-46.683,46.357
			c-50.804,1.024-64.683-39.938-64.683-39.938V-17.56h1023.616V112.338z"/>
	</g>
</g>
<g id="fondo">
</g>
<g id="LOGO">
</g>
<g id="datos">
</g>
<g id="guia" display="none">
</g>
</svg>
