<svg xmlns="http://www.w3.org/2000/svg" viewBox="0 0 793.11 455.97"><defs><style>.cls-1,.cls-2,.cls-3,.cls-4{fill:#fff;}.cls-1{opacity:0.29;}.cls-2{opacity:0.26;}.cls-3{opacity:0.18;}</style></defs><title>nuve</title><g id="Capa_2" data-name="Capa 2"><g id="fondo"><path class="cls-1" d="M94.4,118.86c-5.75-35.3,50.89-66.49,82.9-35.3,19.7,0,44.32,10.67,46.79,35.3,14-26.27,67.31-53.35,101-14,31.19-8.21,53.35-.82,59.1,23.8,6.57-7.39,9.85-6.57,18.06,0C405.49,91,458,67.15,479.37,120.51c18.88-30.37,57.46-47.61,99.32-2.46,10.67-6.57,23.8-9.85,31.19,4.92,8.21-22.16,40.22-28.41,68.13-23.24s46,29,46,29,36.9-55.82,69.14-32c0,74.69,0,98.58,0,98.58H.69V107.37S41.05,49.1,94.4,118.86Z"/><path class="cls-2" d="M731.37,373.94c-4.92,12.31-33.26,42.46-82.51,11.27-34.47-4.1-48.43-18.88-51.71-31.19-26.27,32-73.87,41.86-110.81,12.31-28.73,5.75-60.59,1.32-63.54-21.91-5.41,7.14-14.44,10.1-21.83,0-5.75,23.55-59.1,65.92-82.08,0-11.49,22.73-60.74,69.52-116.56,5.5-9,11.49-22.11,9.29-29.11,3-13.57,9.31-57.89,21.61-73.49,18.74s-68.13,6.16-86.19,3.7S.69,368,.69,368V257.16H793.1V381.11S766.27,414.38,731.37,373.94Z"/><path class="cls-3" d="M.69,450.88C11.31,464.17,44,449.33,44,430.52c31.67,20.35,71.78,23.64,91.48-15.76,33.65,13.13,78,2.46,101.78-23.8,27.91,14,46.79,15.6,73.87-4.92,20.52,25.45,53.35,41.86,105.06,17.24,36.94,22.16,79.52,45.28,132.15,2.46,27.91,14,63.2,3.28,69.77-2.46,17.24,25.45,69.77,27.91,89.47,14,7.39,32,59.89,33.65,85.55,21.22V275.76H.69Z"/><path class="cls-4" d="M793.1,13.26S756.8,28,747,69.07c-46-1.64-80.44,13.13-91.11,66.49-30.37-27.09-67.31-1.64-81.26,13.13-33.65-18.06-58.28-8.21-64,0-31.19-40.22-94.39-36.12-119.84,3.28-32-27.09-78-13.13-95.21,18.06-40.22-36.94-61.56-9-68.13-2.46-21.34-33.65-73.87-46-96-31.19-4.1-32-50.07-74.69-81.26-72.23C46,49.37,26.28,37.06,21.35,42,20,20.71,10.41,7.39.69,0V450.88S23,423,20.53,409.84c20.52,4.92,90.29,2.46,101-64,18.06,14,67.31,12.31,88.65-12.31,22.16,10.67,51.71,12.31,69.77,0,32,32.83,91.93,42.68,133.79-5.75,48.43,33.65,88.65,9,105.06-17.24,31.19,22.16,50.89,23.8,74.69,3.28,24.62,28.73,59.1,46,104.24,32,16.42,40.22,58.24,68.13,95.4,75.52Z"/></g></g></svg>