<?xml version="1.0" encoding="utf-8"?>
<!-- Generator: Adobe Illustrator 17.0.0, SVG Export Plug-In . SVG Version: 6.00 Build 0)  -->
<!DOCTYPE svg PUBLIC "-//W3C//DTD SVG 1.1//EN" "http://www.w3.org/Graphics/SVG/1.1/DTD/svg11.dtd">
<svg version="1.1" xmlns="http://www.w3.org/2000/svg" xmlns:xlink="http://www.w3.org/1999/xlink" x="0px" y="0px"
	 width="97.916px" height="64.152px" viewBox="0 0 97.916 64.152" enable-background="new 0 0 97.916 64.152" xml:space="preserve">
<g id="Capa_4">
</g>
<g id="fondo">
	<g>
		<path d="M92.952,4.015c0-0.055-0.003-0.115-0.006-0.173c-0.002-0.05-0.007-0.091-0.013-0.14c-0.007-0.053-0.012-0.109-0.021-0.162
			c-0.008-0.048-0.015-0.097-0.024-0.138c-0.01-0.044-0.022-0.099-0.036-0.147c-0.014-0.046-0.027-0.092-0.041-0.136
			c-0.019-0.048-0.037-0.096-0.056-0.135c-0.016-0.041-0.035-0.081-0.052-0.122c-0.021-0.045-0.046-0.091-0.073-0.137
			c-0.02-0.037-0.041-0.074-0.064-0.107c-0.027-0.039-0.057-0.078-0.089-0.119c-0.022-0.035-0.043-0.07-0.071-0.102
			c-0.033-0.045-0.071-0.082-0.108-0.119c-0.027-0.033-0.055-0.063-0.086-0.083c-0.041-0.036-0.083-0.073-0.122-0.108
			c-0.032-0.026-0.064-0.055-0.1-0.078c-0.049-0.038-0.099-0.071-0.151-0.107c-0.032-0.02-0.064-0.044-0.101-0.065
			c-0.06-0.025-0.121-0.057-0.184-0.09c-0.033-0.016-0.062-0.033-0.096-0.051c-0.099-0.042-0.196-0.087-0.307-0.13
			c-0.222-0.079-0.463-0.137-0.713-0.184c-0.036-0.007-0.075-0.011-0.112-0.018c-0.232-0.04-0.474-0.066-0.727-0.081
			c-0.019-0.001-0.038-0.003-0.058-0.003c-6.003-0.302-17.466,6.104-23.312,9.652c-0.006,0.002-0.012,0.003-0.018,0.005
			c-0.637,0.396-1.21,0.738-1.696,1.051c0.04,0.039,0.079,0.082,0.119,0.122c-0.779-0.77-1.611-1.484-2.495-2.133
			c-0.023-0.017-0.046-0.032-0.069-0.049c-0.481-0.351-0.977-0.683-1.488-0.993c-0.03-0.018-0.057-0.041-0.087-0.059
			c0.002,0.002,0.004,0.004,0.006,0.007c-0.003-0.002-0.006-0.004-0.01-0.007c0,0-0.001,0.001-0.001,0.001
			c-0.423-0.255-0.854-0.5-1.296-0.726c-0.328-0.181-0.661-0.338-0.995-0.497c0.002-0.002,0.005-0.005,0.007-0.008
			c-0.144-0.07-0.281-0.133-0.423-0.2c-0.477-0.218-0.966-0.413-1.459-0.596c-0.139-0.052-0.278-0.103-0.418-0.152
			c-0.472-0.165-0.949-0.32-1.433-0.455c-0.024-0.007-0.047-0.016-0.071-0.023c0,0.001-0.001,0.001-0.001,0.002
			c-1.921-0.529-3.925-0.821-5.942-0.885c-0.564-0.054-1.136-0.091-1.7-0.109c-0.572-0.019-1.137-0.023-1.709-0.009
			c-0.681,0.022-1.366,0.065-2.041,0.139c-2.826,0.245-5.617,0.98-8.163,2.167c-0.64,0.301-1.26,0.636-1.868,0.98
			c-5.123,2.492-9.147,6.981-10.695,12.477c-0.195,0.703-0.348,1.406-0.476,2.129c-0.309,1.976-0.698,3.94-1.448,5.93
			c-0.153,0.623-0.274,1.27-0.352,1.89c-0.093,1.205-0.024,2.407,0.169,3.556c0.103,0.592,0.235,1.163,0.393,1.722
			c0.134,0.475,0.286,0.964,0.449,1.429c0.004-0.001,0.007-0.001,0.01-0.002c0.264,0.778,0.555,1.545,0.886,2.294
			c-0.025-0.057-0.057-0.111-0.082-0.168c-1.108,0.747-3.073,2.136-5.337,3.901C10.389,48.383,2.078,55.776,2.343,60.823
			c0.368,7.225,15.231,1.81,32.446-7.824c2.375,1.268,4.983,2.074,7.658,2.437c0.028,0.004,0.055,0.008,0.083,0.011
			c0.661,0.087,1.326,0.149,1.993,0.183c0.056,0.003,0.112,0.004,0.168,0.007c0.652,0.029,1.305,0.035,1.957,0.013
			c0.056-0.002,0.111-0.006,0.167-0.008c0.664-0.027,1.327-0.075,1.985-0.154c0.68-0.083,1.353-0.201,2.027-0.335
			c3.837-0.361,7.414-1.69,10.38-3.881c0.497-0.377,0.979-0.758,1.432-1.182c1.654-1.346,3.111-2.855,4.337-4.499
			c0.409-0.54,0.792-1.098,1.149-1.687c1.127-1.888,1.942-3.91,2.492-5.977c0.185-0.689,0.335-1.385,0.46-2.085
			c0.471-2.004,0.729-4.022,0.742-6.044c0.004-0.51-0.025-1.021-0.055-1.532c1.734-1.381,3.37-2.734,4.898-4.046
			c0.009-0.01,0.017-0.017,0.028-0.025c0.269-0.217,0.532-0.454,0.798-0.688c0.037-0.035,0.074-0.069,0.113-0.103
			c0.25-0.2,0.491-0.419,0.731-0.637c0.052-0.048,0.108-0.099,0.16-0.146c0.231-0.185,0.452-0.391,0.673-0.596
			c0.064-0.06,0.132-0.114,0.193-0.174c0.211-0.177,0.423-0.369,0.629-0.565c0.071-0.065,0.143-0.131,0.212-0.195
			c0.2-0.178,0.401-0.358,0.595-0.543c0.073-0.069,0.143-0.137,0.213-0.203c0.19-0.184,0.385-0.348,0.57-0.531
			c0.072-0.067,0.141-0.134,0.213-0.201c0.184-0.184,0.369-0.343,0.551-0.523c0.066-0.064,0.133-0.129,0.198-0.194
			c0.179-0.18,0.362-0.354,0.538-0.52c0.064-0.063,0.124-0.124,0.187-0.185c0.181-0.183,0.354-0.358,0.527-0.517
			c0.055-0.057,0.107-0.113,0.164-0.17c0.178-0.183,0.35-0.363,0.524-0.538c0.046-0.03,0.089-0.078,0.128-0.125
			c0.182-0.188,0.363-0.375,0.532-0.561c0.027-0.029,0.051-0.056,0.076-0.079c0.988-1.023,1.881-2.019,2.685-2.969
			c0.036-0.045,0.075-0.092,0.112-0.138c0.127-0.125,0.24-0.272,0.356-0.421c0.051-0.062,0.105-0.122,0.15-0.185
			c0.106-0.135,0.212-0.25,0.318-0.381c0.056-0.072,0.113-0.143,0.163-0.215c0.099-0.125,0.193-0.247,0.287-0.372
			c0.054-0.058,0.112-0.133,0.168-0.208c0.091-0.118,0.179-0.236,0.264-0.352c0.051-0.079,0.108-0.156,0.164-0.232
			c0.081-0.091,0.159-0.205,0.234-0.315c0.055-0.081,0.111-0.162,0.164-0.238c0.075-0.107,0.149-0.215,0.222-0.303
			c0.049-0.075,0.098-0.155,0.15-0.231c0.068-0.107,0.136-0.21,0.202-0.313c0.045-0.077,0.094-0.156,0.141-0.231
			c0.063-0.079,0.125-0.177,0.184-0.273c0.048-0.078,0.094-0.158,0.136-0.232c0.052-0.095,0.108-0.189,0.162-0.271
			c0.044-0.07,0.084-0.145,0.127-0.22c0.047-0.091,0.095-0.183,0.143-0.271c0.04-0.077,0.078-0.147,0.117-0.223
			c0.045-0.083,0.09-0.158,0.133-0.242c0.037-0.073,0.069-0.146,0.104-0.219c0.036-0.083,0.074-0.167,0.112-0.244
			c0.032-0.075,0.061-0.145,0.093-0.204c0.031-0.077,0.069-0.154,0.098-0.23c0.032-0.076,0.052-0.148,0.08-0.221
			c0.045-0.119,0.087-0.238,0.125-0.336c0.029-0.092,0.061-0.181,0.087-0.267c0.02-0.064,0.032-0.124,0.051-0.185
			c0.019-0.075,0.04-0.147,0.059-0.218c0.013-0.06,0.022-0.104,0.037-0.166c0.014-0.067,0.03-0.131,0.042-0.202
			c0.007-0.06,0.014-0.114,0.021-0.174c0.008-0.064,0.017-0.128,0.024-0.19c0.006-0.059,0.008-0.114,0.011-0.151
			c0.005-0.063,0.008-0.124,0.011-0.181C92.954,4.123,92.954,4.069,92.952,4.015z M76.523,13.786
			c-0.076,0.206-0.151,0.439-0.232,0.67c-0.027,0.075-0.057,0.15-0.083,0.203c-0.059,0.157-0.119,0.316-0.181,0.473
			c-0.033,0.09-0.071,0.179-0.108,0.26c-0.058,0.132-0.118,0.28-0.181,0.426c-0.042,0.093-0.083,0.184-0.122,0.275
			c-0.063,0.129-0.136,0.276-0.208,0.426c-0.042,0.089-0.083,0.173-0.125,0.262c-0.098,0.186-0.194,0.376-0.301,0.576
			c-0.047,0.09-0.094,0.177-0.143,0.267c-0.089,0.154-0.186,0.324-0.284,0.497c-0.057,0.102-0.122,0.207-0.184,0.309
			c-0.072,0.114-0.152,0.239-0.23,0.371c-0.07,0.113-0.138,0.23-0.211,0.344c-0.074,0.121-0.153,0.22-0.233,0.342
			c-0.076,0.118-0.151,0.236-0.231,0.357c-0.077,0.117-0.157,0.23-0.236,0.323c-0.082,0.125-0.171,0.251-0.259,0.378
			c-0.071,0.097-0.143,0.194-0.209,0.293c-0.199,0.252-0.399,0.523-0.612,0.799c-0.064,0.061-0.127,0.141-0.186,0.224
			c-0.117,0.147-0.239,0.299-0.355,0.449c-0.073,0.087-0.145,0.175-0.217,0.239c-0.125,0.153-0.247,0.305-0.374,0.454
			c-0.146-0.511-0.305-1.019-0.483-1.519c-0.005-0.015-0.01-0.031-0.015-0.046c-0.26-0.73-0.555-1.444-0.878-2.145
			c-0.007-0.015-0.014-0.031-0.021-0.047c-0.325-0.702-0.683-1.386-1.069-2.053c-0.006-0.01-0.012-0.021-0.018-0.032
			c-0.39-0.671-0.811-1.322-1.26-1.952c-0.002-0.003-0.004-0.005-0.006-0.008c-0.453-0.634-0.934-1.245-1.445-1.83
			c0.199-0.092,0.411-0.189,0.631-0.287c0.027-0.012,0.053-0.024,0.08-0.036c0.212-0.095,0.433-0.191,0.66-0.289
			c0.044-0.019,0.088-0.038,0.132-0.057c0.224-0.095,0.453-0.192,0.687-0.288c0.048-0.02,0.097-0.039,0.146-0.059
			c0.213-0.086,0.429-0.172,0.648-0.257c0.043-0.017,0.085-0.033,0.128-0.05c0.236-0.091,0.476-0.179,0.716-0.265
			c0.063-0.022,0.126-0.045,0.189-0.068c0.241-0.085,0.483-0.167,0.725-0.246c0.054-0.018,0.107-0.034,0.161-0.052
			c0.258-0.082,0.515-0.161,0.769-0.232c0.017-0.005,0.034-0.009,0.051-0.014c0.276-0.077,0.549-0.148,0.816-0.21c0,0,0,0,0,0
			C75.259,10.29,77.546,10.592,76.523,13.786z M22.532,41.2c1.736,3.422,4.178,6.427,7.291,8.554
			c0.092,0.061,0.193,0.118,0.287,0.178c-5.791,2.183-10.046,2.825-11.471,1.48c-0.209-0.205-0.368-0.453-0.45-0.729
			c-0.925-3.282,2.878-7.553,4.491-9.179C22.627,41.405,22.584,41.3,22.532,41.2z"/>
		<g>
			<path fill="#FF9400" d="M17.671,29.665c-0.093,1.205-0.024,2.407,0.169,3.556c0.102,0.592,0.235,1.163,0.392,1.722
				c1.535,5.454,4.694,10.432,9.253,13.548c0.503,0.335,1.03,0.667,1.569,0.977c4.801,3.988,11.287,5.49,17.408,4.756
				c0.68-0.083,1.353-0.201,2.027-0.335c3.837-0.361,7.414-1.69,10.38-3.881c0.497-0.377,0.979-0.758,1.432-1.182
				c1.654-1.346,3.111-2.855,4.337-4.499c0.409-0.54,0.791-1.098,1.149-1.687c1.127-1.888,1.942-3.91,2.492-5.977
				c0.185-0.689,0.335-1.385,0.46-2.085c0.471-2.004,0.729-4.022,0.742-6.044c0.005-0.665-0.017-1.33-0.072-1.996
				c-0.008-0.696-0.059-1.392-0.142-2.085c-0.093-0.675-0.223-1.345-0.387-1.999C67.185,15.814,62.89,9.968,56.86,6.889
				c-0.465-0.257-0.932-0.498-1.411-0.706c-2.879-1.317-6.086-2.006-9.325-2.109c-0.565-0.054-1.136-0.091-1.7-0.109
				c-0.572-0.019-1.137-0.023-1.709-0.009c-0.681,0.022-1.366,0.065-2.041,0.139c-2.826,0.245-5.617,0.98-8.163,2.167
				c-0.64,0.301-1.26,0.636-1.868,0.98c-5.123,2.492-9.147,6.982-10.695,12.477c-0.195,0.703-0.348,1.406-0.476,2.129
				c-0.309,1.976-0.698,3.94-1.448,5.93C17.869,28.398,17.748,29.045,17.671,29.665z"/>
			<path fill="#FFAB00" d="M61.301,9.92c-0.978-0.859-2.027-1.634-3.145-2.307C43.111,28.78,17.84,33.221,17.84,33.221
				c0.102,0.592,0.235,1.163,0.392,1.722c0.134,0.475,0.286,0.964,0.449,1.429C43.953,30.681,56.955,15.882,61.301,9.92z"/>
			<path fill="#FFAB00" d="M55.871,6.383c-0.143-0.07-0.281-0.133-0.423-0.2c-1.087-0.505-2.221-0.899-3.382-1.226
				c-10.956,13.8-26.157,19.766-33.766,22.019c-0.088,0.271-0.178,0.542-0.278,0.8c-0.153,0.623-0.274,1.27-0.352,1.89
				c-0.021,0.278-0.035,0.574-0.037,0.868C38.928,24.863,50.849,12.74,55.871,6.383z"/>
			<g>
				<g>
					<path fill="#DB7700" d="M65.205,25.535c0-6.921-2.675-13.222-7.045-17.922c5.343,3.226,9.144,8.702,10.722,14.841
						c0.164,0.654,0.294,1.324,0.387,1.999c0.083,0.693,0.133,1.389,0.142,2.085c0.055,0.666,0.077,1.331,0.072,1.996
						c-0.013,2.021-0.271,4.04-0.742,6.044c-0.125,0.7-0.275,1.396-0.46,2.085c-0.55,2.066-1.365,4.089-2.492,5.977
						c-0.357,0.589-0.74,1.146-1.149,1.687c-1.226,1.644-2.683,3.153-4.337,4.499c-0.453,0.424-0.936,0.805-1.432,1.182
						c-2.966,2.191-6.543,3.52-10.38,3.881c-0.675,0.134-1.347,0.252-2.027,0.335c-5.567,0.667-11.444-0.529-16.075-3.754
						c2.666,0.907,5.512,1.414,8.478,1.414C53.415,51.883,65.205,40.09,65.205,25.535z"/>
				</g>
			</g>
			<path opacity="0.52" fill="#FFF0A3" d="M44.141,6.901c-0.172,0.721-0.271,1.542,0.004,2.258c0.06,0.168,0.138,0.311,0.23,0.465
				c0.387,0.575,0.87,1.058,1.433,1.399c0.191,0.123,0.382,0.229,0.59,0.317c0.582,0.229,1.242,0.332,1.887,0.288
				c0.211-0.013,0.426-0.043,0.632-0.091c1.021-0.269,1.978-0.896,2.293-1.871c0.062-0.199,0.1-0.393,0.106-0.618
				c0.009-1.375-0.443-3.053-1.714-3.663c-0.188-0.092-0.389-0.158-0.607-0.206c-1.571-0.324-3.623-0.492-4.625,1.09
				C44.278,6.459,44.198,6.67,44.141,6.901z"/>
			<path opacity="0.52" fill="#FFF0A3" d="M37.952,7.775c-0.098,0.398-0.147,0.86,0.003,1.268c0.034,0.097,0.076,0.187,0.13,0.275
				c0.218,0.302,0.496,0.582,0.812,0.791c0.101,0.066,0.212,0.106,0.33,0.158c0.327,0.127,0.701,0.187,1.063,0.162
				c0.122-0.008,0.238-0.023,0.354-0.052c0.576-0.153,1.12-0.499,1.294-1.035c0.037-0.115,0.059-0.237,0.062-0.365
				c0.005-0.777-0.248-1.726-0.97-2.06c-0.098-0.048-0.212-0.087-0.339-0.113c-0.887-0.186-2.043-0.282-2.607,0.615
				C38.029,7.527,37.987,7.645,37.952,7.775z"/>
			<g>
				<path fill="#DB7700" d="M30.982,42.518c0,0.386,0.303,0.697,0.678,0.697c0.378,0,0.683-0.312,0.683-0.697
					c0-0.365-0.305-0.68-0.683-0.68C31.284,41.838,30.982,42.152,30.982,42.518z"/>
				<path fill="#DB7700" d="M29.948,41.772c0,0.173,0.13,0.312,0.301,0.312c0.165,0,0.304-0.139,0.304-0.312
					c0-0.148-0.139-0.289-0.304-0.289C30.077,41.482,29.948,41.623,29.948,41.772z"/>
				<path fill="#DB7700" d="M33.768,41.838c0,0.173,0.133,0.311,0.301,0.311c0.166,0,0.303-0.138,0.303-0.311
					c0-0.154-0.137-0.29-0.303-0.29C33.901,41.548,33.768,41.684,33.768,41.838z"/>
				<path fill="#DB7700" d="M29.839,43.032c0,0.202,0.156,0.345,0.356,0.345c0.193,0,0.357-0.143,0.357-0.345
					c0-0.201-0.164-0.366-0.357-0.366C29.995,42.666,29.839,42.831,29.839,43.032z"/>
			</g>
			<g>
				<path fill="#DB7700" d="M57.907,39.04c0,0.362,0.31,0.675,0.686,0.675c0.375,0,0.681-0.313,0.681-0.675
					c0-0.39-0.306-0.681-0.681-0.681C58.217,38.359,57.907,38.65,57.907,39.04z"/>
				<path fill="#DB7700" d="M56.873,38.291c0,0.173,0.139,0.293,0.303,0.293c0.167,0,0.306-0.12,0.306-0.293
					c0-0.173-0.139-0.309-0.306-0.309C57.012,37.982,56.873,38.118,56.873,38.291z"/>
				<path fill="#DB7700" d="M60.694,38.359c0,0.172,0.138,0.288,0.304,0.288c0.166,0,0.304-0.116,0.304-0.288
					c0-0.173-0.138-0.313-0.304-0.313C60.831,38.046,60.694,38.187,60.694,38.359z"/>
				<path fill="#DB7700" d="M56.766,39.531c0,0.203,0.162,0.366,0.355,0.366c0.199,0,0.361-0.163,0.361-0.366
					c0-0.201-0.162-0.343-0.361-0.343C56.928,39.189,56.766,39.33,56.766,39.531z"/>
			</g>
			<g>
				<path fill="#DB7700" d="M56.645,15.9c-0.3,0.625-0.024,1.377,0.604,1.68c0.627,0.301,1.379,0.023,1.675-0.6
					c0.295-0.624,0.026-1.374-0.604-1.679C57.69,14.998,56.939,15.275,56.645,15.9z"/>
				<path fill="#DB7700" d="M55.493,13.848c-0.128,0.279-0.009,0.608,0.273,0.744c0.276,0.133,0.611,0.009,0.744-0.275
					c0.134-0.269,0.012-0.609-0.269-0.744C55.962,13.436,55.626,13.558,55.493,13.848z"/>
				<path fill="#DB7700" d="M61.837,16.959c-0.128,0.285-0.011,0.609,0.27,0.743c0.28,0.136,0.612,0.011,0.745-0.276
					c0.138-0.265,0.014-0.608-0.271-0.743C62.303,16.546,61.97,16.671,61.837,16.959z"/>
				<path fill="#DB7700" d="M54.343,15.841c-0.156,0.341-0.013,0.72,0.313,0.878c0.326,0.161,0.72,0.015,0.872-0.302
					c0.157-0.34,0.014-0.722-0.317-0.877C54.884,15.379,54.494,15.524,54.343,15.841z"/>
				<path fill="#DB7700" d="M24.242,20.085c-0.295,0.626-0.027,1.374,0.602,1.679c0.632,0.283,1.381,0.024,1.677-0.598
					c0.294-0.646,0.022-1.396-0.604-1.679C25.288,19.183,24.537,19.459,24.242,20.085z"/>
				<path fill="#DB7700" d="M23.096,18.031c-0.133,0.269-0.013,0.61,0.267,0.744c0.285,0.114,0.616,0.014,0.744-0.274
					c0.134-0.289,0.014-0.608-0.265-0.745C23.563,17.623,23.224,17.743,23.096,18.031z"/>
				<path fill="#DB7700" d="M21.939,20.027c-0.158,0.338-0.013,0.717,0.313,0.877c0.33,0.16,0.721,0.014,0.878-0.322
					c0.151-0.319,0.014-0.721-0.313-0.88C22.481,19.565,22.093,19.689,21.939,20.027z"/>
			</g>
			<path fill="#FFC969" d="M90.615,2.751c0-0.055-0.003-0.115-0.006-0.173c-0.002-0.05-0.007-0.091-0.013-0.14
				c-0.007-0.053-0.012-0.109-0.021-0.162c-0.008-0.048-0.015-0.097-0.024-0.138c-0.01-0.044-0.022-0.099-0.036-0.147
				c-0.014-0.046-0.027-0.092-0.041-0.136c-0.019-0.048-0.037-0.096-0.056-0.135c-0.016-0.041-0.035-0.081-0.052-0.122
				c-0.021-0.045-0.046-0.091-0.073-0.137c-0.02-0.037-0.04-0.074-0.064-0.107c-0.027-0.039-0.057-0.078-0.089-0.119
				c-0.022-0.035-0.043-0.07-0.071-0.102c-0.033-0.045-0.071-0.082-0.108-0.119c-0.027-0.033-0.055-0.063-0.086-0.083
				c-0.041-0.036-0.084-0.073-0.122-0.108c-0.032-0.026-0.064-0.055-0.1-0.078c-0.049-0.038-0.099-0.071-0.151-0.107
				c-0.032-0.02-0.064-0.044-0.101-0.065c-0.06-0.025-0.121-0.057-0.184-0.09c-0.033-0.016-0.062-0.033-0.096-0.051
				c-0.099-0.042-0.196-0.087-0.307-0.13C82.99-1.771,67.584,7.342,62.18,10.726c0.45,0.436,0.884,0.91,1.303,1.383
				c3.986-1.85,12.512-5.229,10.704,0.413c-0.076,0.206-0.151,0.439-0.232,0.67c-0.027,0.075-0.057,0.15-0.083,0.203
				c-0.059,0.157-0.119,0.316-0.181,0.473c-0.033,0.09-0.071,0.179-0.108,0.26c-0.058,0.132-0.118,0.28-0.181,0.426
				c-0.042,0.093-0.083,0.184-0.122,0.275c-0.063,0.129-0.136,0.276-0.208,0.426c-0.042,0.089-0.083,0.173-0.126,0.262
				c-0.098,0.186-0.194,0.376-0.301,0.576c-0.047,0.09-0.094,0.177-0.143,0.267c-0.089,0.154-0.186,0.324-0.284,0.497
				c-0.057,0.101-0.122,0.207-0.184,0.309c-0.072,0.113-0.152,0.238-0.23,0.371c-0.07,0.113-0.138,0.23-0.211,0.344
				c-0.074,0.121-0.153,0.22-0.233,0.342c-0.076,0.118-0.151,0.236-0.232,0.357c-0.077,0.117-0.157,0.231-0.236,0.323
				c-0.082,0.125-0.171,0.251-0.259,0.378c-0.071,0.097-0.143,0.194-0.209,0.293c-0.199,0.252-0.399,0.523-0.612,0.799
				c-0.064,0.06-0.127,0.141-0.186,0.224c-0.117,0.148-0.239,0.299-0.355,0.449c-0.073,0.087-0.145,0.175-0.217,0.239
				c-0.127,0.155-0.25,0.309-0.379,0.46c-0.069,0.083-0.142,0.168-0.208,0.249c-0.141,0.139-0.279,0.3-0.417,0.46
				c-0.059,0.065-0.118,0.128-0.176,0.191c-0.554,0.601-1.132,1.207-1.749,1.814l-0.005,0.004c-0.195,0.196-0.396,0.394-0.593,0.593
				c-0.049,0.047-0.094,0.086-0.139,0.117c-0.194,0.189-0.395,0.384-0.599,0.575c-0.046,0.046-0.095,0.092-0.142,0.138
				c-0.211,0.18-0.426,0.383-0.644,0.585c-0.019,0.014-0.034,0.031-0.053,0.049c-0.976,0.882-2.028,1.772-3.147,2.667
				c-0.021,0.017-0.043,0.035-0.066,0.053c-0.266,0.222-0.542,0.449-0.823,0.65c-0.025,0.022-0.049,0.045-0.07,0.065
				c-1.471,1.161-3.054,2.325-4.752,3.542c-2.269,1.601-4.734,3.246-7.443,4.952C31.713,48.471,17.02,53.535,15.852,49.419
				c-0.925-3.282,2.878-7.553,4.491-9.179c-0.301-0.571-0.588-1.15-0.846-1.746C15.399,41.31-0.356,52.641,0.006,59.559
				c0.491,9.628,26.719-3.188,49.952-18.525c2.348-1.548,4.594-3.072,6.75-4.573c0.026-0.022,0.056-0.042,0.085-0.066
				c0.381-0.252,0.755-0.523,1.128-0.793c0.06-0.042,0.122-0.086,0.181-0.128c0.358-0.238,0.712-0.495,1.063-0.756
				c0.072-0.05,0.144-0.103,0.215-0.138c0.341-0.247,0.678-0.497,1.013-0.746c0.08-0.037,0.16-0.093,0.241-0.152
				c0.331-0.249,0.657-0.494,0.984-0.718c0.077-0.057,0.151-0.116,0.227-0.171c0.332-0.245,0.654-0.49,0.973-0.713
				c0.078-0.058,0.152-0.113,0.225-0.168c0.318-0.245,0.643-0.475,0.955-0.714c0.069-0.053,0.136-0.105,0.203-0.159
				c0.324-0.245,0.638-0.465,0.949-0.711c0.065-0.048,0.13-0.1,0.197-0.149c0.315-0.245,0.63-0.473,0.94-0.719
				c0.047-0.036,0.092-0.074,0.144-0.112c0.324-0.25,0.648-0.495,0.967-0.752c0.019-0.013,0.038-0.029,0.055-0.043
				c2.483-1.921,4.775-3.797,6.872-5.597c0.009-0.01,0.017-0.017,0.028-0.025c0.269-0.217,0.532-0.454,0.798-0.688
				c0.037-0.035,0.074-0.069,0.113-0.103c0.25-0.2,0.491-0.419,0.731-0.637c0.052-0.048,0.108-0.099,0.16-0.146
				c0.231-0.185,0.452-0.391,0.673-0.596c0.064-0.059,0.132-0.114,0.193-0.174c0.211-0.177,0.423-0.369,0.629-0.565
				c0.071-0.065,0.143-0.131,0.212-0.195c0.2-0.178,0.401-0.358,0.595-0.543c0.073-0.069,0.143-0.137,0.213-0.203
				c0.19-0.184,0.385-0.348,0.57-0.531c0.072-0.067,0.141-0.134,0.213-0.201c0.184-0.184,0.369-0.343,0.551-0.524
				c0.066-0.064,0.133-0.129,0.198-0.194c0.179-0.18,0.362-0.354,0.538-0.519c0.064-0.064,0.124-0.124,0.187-0.185
				c0.181-0.183,0.354-0.358,0.527-0.517c0.055-0.057,0.107-0.113,0.164-0.17c0.178-0.183,0.35-0.363,0.524-0.538
				c0.046-0.03,0.089-0.078,0.128-0.125c0.182-0.188,0.363-0.375,0.532-0.561c0.027-0.029,0.051-0.056,0.076-0.079
				c0.988-1.023,1.881-2.019,2.685-2.969c0.036-0.045,0.075-0.092,0.112-0.138c0.127-0.125,0.24-0.272,0.356-0.421
				c0.051-0.062,0.105-0.122,0.15-0.185c0.106-0.135,0.212-0.25,0.318-0.381c0.056-0.072,0.113-0.143,0.163-0.215
				c0.099-0.125,0.193-0.247,0.287-0.372c0.054-0.058,0.112-0.133,0.168-0.208c0.091-0.118,0.179-0.236,0.264-0.351
				c0.051-0.079,0.108-0.156,0.164-0.232c0.081-0.091,0.159-0.205,0.234-0.315c0.055-0.081,0.111-0.162,0.164-0.238
				c0.075-0.107,0.149-0.215,0.222-0.303c0.049-0.075,0.098-0.155,0.15-0.232c0.068-0.107,0.136-0.21,0.202-0.313
				c0.045-0.077,0.094-0.156,0.141-0.231c0.063-0.079,0.125-0.177,0.184-0.273c0.048-0.078,0.094-0.158,0.136-0.232
				c0.052-0.095,0.108-0.189,0.162-0.272c0.044-0.07,0.084-0.145,0.127-0.22c0.047-0.091,0.095-0.183,0.143-0.271
				c0.04-0.077,0.078-0.147,0.117-0.223c0.045-0.083,0.09-0.158,0.133-0.242c0.037-0.074,0.069-0.146,0.104-0.219
				c0.036-0.083,0.074-0.167,0.112-0.244c0.032-0.075,0.061-0.144,0.093-0.204c0.031-0.077,0.069-0.154,0.098-0.23
				c0.032-0.076,0.052-0.148,0.08-0.221c0.045-0.119,0.087-0.238,0.125-0.336c0.029-0.092,0.061-0.181,0.087-0.267
				c0.02-0.064,0.032-0.124,0.051-0.185c0.019-0.075,0.04-0.147,0.059-0.218c0.013-0.06,0.022-0.104,0.037-0.166
				c0.014-0.067,0.03-0.131,0.042-0.202c0.007-0.06,0.014-0.114,0.021-0.174c0.008-0.065,0.017-0.128,0.024-0.19
				c0.006-0.059,0.008-0.114,0.011-0.151c0.005-0.063,0.008-0.124,0.011-0.181C90.617,2.858,90.617,2.805,90.615,2.751z"/>
			<g>
				<path fill="#F4AE3D" d="M11.637,48.827c0.362,1.305,2.046,1.686,4.667,1.323c-0.21-0.205-0.369-0.454-0.452-0.731
					c-0.925-3.282,2.878-7.553,4.491-9.179c-0.301-0.571-0.588-1.15-0.846-1.746c-1.246,0.84-3.576,2.49-6.196,4.577
					C12.074,44.866,11.117,47.014,11.637,48.827z"/>
				<path fill="#F4AE3D" d="M63.483,12.108c1.73-0.802,4.312-1.894,6.54-2.409c-0.733-1.369-3.427-0.926-6.146-0.024
					c-0.637,0.395-1.21,0.738-1.696,1.051C62.63,11.161,63.064,11.636,63.483,12.108z"/>
				<path fill="#F4AE3D" d="M90.615,2.751c0-0.055-0.003-0.115-0.006-0.173c-0.002-0.05-0.007-0.091-0.013-0.14
					c-0.007-0.053-0.012-0.109-0.021-0.162c-0.008-0.048-0.015-0.097-0.024-0.138c-0.01-0.044-0.022-0.099-0.036-0.147
					c-0.014-0.046-0.027-0.092-0.041-0.136c-0.019-0.048-0.037-0.096-0.056-0.135c-0.016-0.041-0.035-0.081-0.052-0.122
					c-0.021-0.045-0.046-0.091-0.073-0.137c-0.02-0.037-0.04-0.074-0.064-0.107c-0.027-0.039-0.057-0.078-0.089-0.119
					c-0.022-0.035-0.043-0.07-0.071-0.102c-0.033-0.045-0.071-0.082-0.108-0.119c-0.027-0.033-0.055-0.063-0.086-0.083
					c-0.041-0.036-0.084-0.073-0.122-0.108c-0.032-0.026-0.064-0.055-0.1-0.078c-0.049-0.038-0.099-0.071-0.151-0.107
					c-0.032-0.02-0.064-0.044-0.101-0.065c-0.06-0.025-0.121-0.057-0.184-0.09c-0.033-0.016-0.062-0.033-0.096-0.051
					c-0.099-0.042-0.196-0.087-0.307-0.13c-0.938-0.329-2.124-0.371-3.472-0.193c0.031,0.022,0.061,0.04,0.091,0.055
					c0.035,0.026,0.066,0.054,0.098,0.081c0.042,0.038,0.087,0.07,0.127,0.11c0.029,0.03,0.059,0.063,0.088,0.091
					c0.037,0.038,0.075,0.079,0.103,0.114c0.024,0.025,0.051,0.061,0.075,0.094c0.032,0.043,0.061,0.085,0.089,0.129
					c0.021,0.039,0.044,0.076,0.065,0.113c0.026,0.04,0.051,0.078,0.072,0.125c0.018,0.039,0.032,0.079,0.047,0.123
					c0.02,0.046,0.038,0.094,0.055,0.146c0.016,0.043,0.028,0.075,0.042,0.117c0.014,0.053,0.026,0.105,0.037,0.159
					c0.011,0.044,0.019,0.09,0.027,0.139c0.011,0.043,0.017,0.097,0.021,0.157c0.007,0.048,0.015,0.096,0.017,0.148
					c0.003,0.056,0.007,0.116,0.007,0.164c0,0.051,0.002,0.102,0.002,0.156c-0.002,0.061-0.009,0.124-0.011,0.182
					c-0.003,0.05-0.008,0.105-0.015,0.159c-0.004,0.063-0.016,0.127-0.023,0.197c-0.008,0.053-0.015,0.112-0.026,0.171
					c-0.01,0.062-0.027,0.117-0.04,0.189c-0.014,0.059-0.024,0.116-0.037,0.177c-0.019,0.072-0.041,0.146-0.059,0.219
					c-0.018,0.063-0.026,0.121-0.045,0.18c-0.026,0.091-0.06,0.165-0.088,0.252c-0.041,0.116-0.082,0.236-0.127,0.356
					c-0.027,0.074-0.054,0.142-0.081,0.217c-0.025,0.062-0.063,0.139-0.095,0.221c-0.033,0.066-0.062,0.138-0.094,0.213
					c-0.037,0.08-0.076,0.165-0.115,0.247c-0.036,0.074-0.07,0.144-0.104,0.203c-0.042,0.086-0.085,0.171-0.128,0.26
					C85.277,5.848,85.24,5.92,85.2,5.995c-0.048,0.089-0.099,0.182-0.146,0.263c-0.04,0.07-0.081,0.143-0.127,0.218
					c-0.054,0.09-0.109,0.188-0.164,0.286c-0.046,0.074-0.09,0.149-0.139,0.224c-0.054,0.081-0.117,0.18-0.18,0.278
					C84.4,7.346,84.349,7.42,84.301,7.497c-0.061,0.102-0.13,0.208-0.197,0.31c-0.054,0.057-0.106,0.134-0.156,0.217
					c-0.071,0.104-0.141,0.21-0.216,0.317c-0.054,0.08-0.108,0.158-0.164,0.238c-0.078,0.09-0.155,0.203-0.236,0.316
					c-0.055,0.077-0.113,0.154-0.169,0.232c-0.088,0.116-0.168,0.234-0.258,0.331c-0.056,0.076-0.115,0.15-0.173,0.229
					c-0.089,0.125-0.183,0.249-0.281,0.374c-0.056,0.072-0.112,0.14-0.171,0.193c-0.099,0.132-0.205,0.266-0.313,0.402
					c-0.045,0.06-0.095,0.122-0.147,0.185c-0.118,0.137-0.238,0.273-0.359,0.421c-0.033,0.044-0.073,0.09-0.11,0.138
					c-0.804,0.948-1.696,1.943-2.683,2.964c-0.026,0.026-0.05,0.054-0.077,0.085c-0.175,0.185-0.352,0.371-0.531,0.537
					c-0.046,0.045-0.085,0.094-0.127,0.141c-0.176,0.18-0.354,0.36-0.527,0.544c-0.056,0.034-0.111,0.093-0.167,0.148
					c-0.171,0.179-0.349,0.356-0.524,0.538c-0.061,0.06-0.122,0.124-0.186,0.163c-0.175,0.181-0.358,0.362-0.542,0.543
					c-0.062,0.064-0.128,0.127-0.194,0.193c-0.183,0.158-0.366,0.339-0.555,0.522c-0.072,0.067-0.139,0.134-0.209,0.202
					c-0.188,0.161-0.38,0.346-0.575,0.531c-0.072,0.066-0.136,0.136-0.209,0.203c-0.196,0.162-0.396,0.352-0.6,0.544
					c-0.068,0.063-0.137,0.128-0.208,0.193c-0.203,0.192-0.417,0.368-0.633,0.565c-0.062,0.06-0.126,0.117-0.188,0.175
					c-0.221,0.207-0.447,0.39-0.674,0.597c-0.053,0.048-0.107,0.096-0.161,0.145c-0.24,0.218-0.483,0.416-0.729,0.637
					c-0.04,0.035-0.08,0.067-0.117,0.103c-0.263,0.233-0.525,0.45-0.803,0.69c-0.007,0.006-0.016,0.017-0.024,0.023
					c-2.095,1.8-4.388,3.654-6.868,5.598c-0.019,0.013-0.038,0.029-0.055,0.042c-0.319,0.257-0.644,0.492-0.971,0.754
					c-0.048,0.036-0.095,0.074-0.144,0.112c-0.309,0.224-0.626,0.471-0.946,0.717c-0.063,0.052-0.127,0.102-0.188,0.15
					c-0.311,0.224-0.633,0.467-0.95,0.712c-0.068,0.053-0.132,0.104-0.201,0.158c-0.318,0.221-0.638,0.467-0.96,0.713
					c-0.075,0.055-0.151,0.101-0.221,0.147c-0.319,0.243-0.648,0.488-0.973,0.733c-0.078,0.035-0.148,0.094-0.229,0.152
					c-0.33,0.245-0.656,0.49-0.99,0.716c-0.079,0.058-0.155,0.114-0.234,0.175c-0.334,0.25-0.678,0.5-1.018,0.729
					c-0.066,0.05-0.138,0.104-0.21,0.155c-0.351,0.259-0.707,0.495-1.064,0.757c-0.058,0.042-0.119,0.084-0.179,0.128
					c-0.373,0.269-0.751,0.521-1.128,0.791c-0.032,0.022-0.061,0.043-0.091,0.065c-2.15,1.502-4.404,3.026-6.753,4.573
					C28.924,51.562,10.546,61.34,1.486,62.229c5.897,3.516,28.309-7.897,48.473-21.195c2.348-1.548,4.594-3.072,6.75-4.573
					c0.026-0.022,0.056-0.042,0.085-0.066c0.381-0.252,0.755-0.523,1.128-0.793c0.06-0.042,0.122-0.086,0.181-0.128
					c0.358-0.238,0.712-0.495,1.063-0.756c0.072-0.05,0.144-0.103,0.215-0.138c0.341-0.247,0.678-0.497,1.013-0.746
					c0.08-0.037,0.16-0.093,0.241-0.152c0.331-0.249,0.657-0.494,0.984-0.718c0.077-0.057,0.151-0.116,0.227-0.171
					c0.332-0.245,0.654-0.49,0.973-0.713c0.078-0.058,0.152-0.113,0.225-0.168c0.318-0.245,0.643-0.475,0.955-0.714
					c0.069-0.053,0.136-0.105,0.203-0.159c0.324-0.245,0.638-0.465,0.949-0.711c0.065-0.048,0.13-0.1,0.197-0.149
					c0.315-0.245,0.63-0.473,0.94-0.719c0.047-0.036,0.092-0.074,0.144-0.112c0.324-0.25,0.648-0.495,0.967-0.752
					c0.019-0.013,0.038-0.029,0.055-0.043c2.483-1.921,4.775-3.797,6.872-5.597c0.009-0.01,0.017-0.017,0.028-0.025
					c0.269-0.217,0.532-0.454,0.798-0.688c0.037-0.035,0.074-0.069,0.113-0.103c0.25-0.2,0.491-0.419,0.731-0.637
					c0.052-0.048,0.108-0.099,0.16-0.146c0.231-0.185,0.452-0.391,0.673-0.596c0.064-0.059,0.132-0.114,0.193-0.174
					c0.211-0.177,0.423-0.369,0.629-0.565c0.071-0.065,0.143-0.131,0.212-0.195c0.2-0.178,0.401-0.358,0.595-0.543
					c0.073-0.069,0.143-0.137,0.213-0.203c0.19-0.184,0.385-0.348,0.57-0.531c0.072-0.067,0.141-0.134,0.213-0.201
					c0.184-0.184,0.369-0.343,0.551-0.524c0.066-0.064,0.133-0.129,0.198-0.194c0.179-0.18,0.362-0.354,0.538-0.519
					c0.064-0.064,0.124-0.124,0.187-0.185c0.181-0.183,0.354-0.358,0.527-0.517c0.055-0.057,0.107-0.113,0.164-0.17
					c0.178-0.183,0.35-0.363,0.524-0.538c0.046-0.03,0.089-0.078,0.128-0.125c0.182-0.188,0.363-0.375,0.532-0.561
					c0.027-0.029,0.051-0.056,0.076-0.079c0.988-1.023,1.881-2.019,2.685-2.969c0.036-0.045,0.075-0.092,0.112-0.138
					c0.127-0.125,0.24-0.272,0.356-0.421c0.051-0.062,0.105-0.122,0.15-0.185c0.106-0.135,0.212-0.25,0.318-0.381
					c0.056-0.072,0.113-0.143,0.163-0.215c0.099-0.125,0.193-0.247,0.287-0.372c0.054-0.058,0.112-0.133,0.168-0.208
					c0.091-0.118,0.179-0.236,0.264-0.351c0.051-0.079,0.108-0.156,0.164-0.232c0.081-0.091,0.159-0.205,0.234-0.315
					c0.055-0.081,0.111-0.162,0.164-0.238c0.075-0.107,0.149-0.215,0.222-0.303c0.049-0.075,0.098-0.155,0.15-0.232
					c0.068-0.107,0.136-0.21,0.202-0.313c0.045-0.077,0.094-0.156,0.141-0.231c0.063-0.079,0.125-0.177,0.184-0.273
					c0.048-0.078,0.094-0.158,0.136-0.232c0.052-0.095,0.108-0.189,0.162-0.272c0.044-0.07,0.084-0.145,0.127-0.22
					c0.047-0.091,0.095-0.183,0.143-0.271c0.04-0.077,0.078-0.147,0.117-0.223c0.045-0.083,0.09-0.158,0.133-0.242
					c0.037-0.074,0.069-0.146,0.104-0.219c0.036-0.083,0.074-0.167,0.112-0.244c0.032-0.075,0.061-0.144,0.093-0.204
					c0.031-0.077,0.069-0.154,0.098-0.23c0.032-0.076,0.052-0.148,0.08-0.221c0.045-0.119,0.087-0.238,0.125-0.336
					c0.029-0.092,0.061-0.181,0.087-0.267c0.02-0.064,0.032-0.124,0.051-0.185c0.019-0.075,0.04-0.147,0.059-0.218
					c0.013-0.06,0.022-0.104,0.037-0.166c0.014-0.067,0.03-0.131,0.042-0.202c0.007-0.06,0.014-0.114,0.021-0.174
					c0.008-0.065,0.017-0.128,0.024-0.19c0.006-0.059,0.008-0.114,0.011-0.151c0.005-0.063,0.008-0.124,0.011-0.181
					C90.617,2.858,90.617,2.805,90.615,2.751z"/>
			</g>
		</g>
	</g>
</g>
<g id="LOGO">
</g>
<g id="datos">
	<g>
	</g>
</g>
<g id="guia" display="none">
</g>
</svg>
