<?xml version="1.0" encoding="utf-8"?>
<!-- Generator: Adobe Illustrator 17.0.0, SVG Export Plug-In . SVG Version: 6.00 Build 0)  -->
<!DOCTYPE svg PUBLIC "-//W3C//DTD SVG 1.1//EN" "http://www.w3.org/Graphics/SVG/1.1/DTD/svg11.dtd">
<svg version="1.1" xmlns="http://www.w3.org/2000/svg" xmlns:xlink="http://www.w3.org/1999/xlink" x="0px" y="0px"
	 width="71.755px" height="68.162px" viewBox="0 0 71.755 68.162" enable-background="new 0 0 71.755 68.162" xml:space="preserve">
<g id="Capa_4">
</g>
<g id="fondo">
	<g>
		<g>
			<defs>
				<filter id="Adobe_OpacityMaskFilter" filterUnits="userSpaceOnUse" x="4.124" y="2.386" width="67.631" height="65.776">
					<feFlood  style="flood-color:white;flood-opacity:1" result="back"/>
					<feBlend  in="SourceGraphic" in2="back" mode="normal"/>
				</filter>
			</defs>
			<mask maskUnits="userSpaceOnUse" x="4.124" y="2.386" width="67.631" height="65.776" id="SVGID_1_">
				<g filter="url(#Adobe_OpacityMaskFilter)">
					<image overflow="visible" width="73" height="71" xlink:href="D805E425.jpg"  transform="matrix(1 0 0 1 1.1391 -0.272)">
					</image>
				</g>
			</mask>
			<g mask="url(#SVGID_1_)">
				<path d="M71.658,31.835c-0.008-0.917-0.077-1.814-0.195-2.701c-0.111-0.892-0.281-1.768-0.491-2.629
					c-0.134-0.522-0.282-1.041-0.441-1.555c-0.05-0.162-0.107-0.321-0.159-0.481c-0.113-0.349-0.227-0.698-0.352-1.043
					c-0.073-0.201-0.153-0.399-0.229-0.598c-0.114-0.299-0.228-0.597-0.351-0.893c-0.092-0.221-0.19-0.439-0.287-0.658
					c-0.118-0.266-0.235-0.533-0.359-0.796c-0.11-0.233-0.226-0.463-0.341-0.694c-0.121-0.242-0.243-0.483-0.37-0.722
					c-0.128-0.241-0.26-0.478-0.394-0.715c-0.124-0.22-0.25-0.439-0.379-0.656c-0.146-0.246-0.296-0.49-0.449-0.732
					c-0.126-0.199-0.254-0.397-0.384-0.593c-0.166-0.25-0.333-0.499-0.506-0.744c-0.126-0.179-0.254-0.355-0.383-0.531
					c-0.186-0.253-0.373-0.505-0.566-0.753c-0.123-0.157-0.249-0.311-0.374-0.465c-0.209-0.258-0.419-0.514-0.635-0.764
					c-0.113-0.13-0.229-0.257-0.344-0.385c-0.238-0.266-0.476-0.531-0.723-0.788c-0.088-0.091-0.179-0.179-0.268-0.269
					c-0.282-0.286-0.565-0.571-0.858-0.846c-0.004-0.004-0.009-0.008-0.013-0.012c-0.237-0.222-0.479-0.437-0.723-0.651l0,0
					c0,0,0,0,0,0c-0.63-0.552-1.282-1.078-1.958-1.575c-0.025-0.018-0.05-0.035-0.074-0.053c-1.189-0.868-2.441-1.655-3.764-2.331
					c-0.604-0.325-1.213-0.631-1.843-0.923c-0.622-0.282-1.259-0.533-1.902-0.771c-0.177-0.066-0.355-0.129-0.534-0.192
					c-0.641-0.223-1.287-0.433-1.945-0.613c-0.008-0.002-0.016-0.006-0.025-0.008c0,0-0.001,0.001-0.001,0.001
					c-2.503-0.686-5.117-1.067-7.748-1.151c-0.739-0.069-1.478-0.113-2.219-0.14c-0.741-0.024-1.49-0.027-2.231-0.005
					c-0.885,0.024-1.776,0.077-2.657,0.167c-3.689,0.312-7.326,1.277-10.647,2.83c-0.834,0.389-1.645,0.817-2.442,1.28
					C14.41,9.924,9.169,15.789,7.147,22.95c-0.258,0.897-0.455,1.818-0.622,2.753c-0.404,2.598-0.909,5.14-1.889,7.753
					c-0.192,0.822-0.352,1.641-0.462,2.455c-0.113,1.582-0.033,3.14,0.229,4.649c0.124,0.757,0.297,1.503,0.507,2.242
					c0.177,0.622,0.379,1.25,0.588,1.859c0.004-0.001,0.008-0.002,0.011-0.003c2.166,6.371,6.05,12.094,11.468,15.801
					c0.66,0.459,1.34,0.879,2.048,1.271c0.576,0.479,1.177,0.92,1.788,1.344c-0.016-0.005-0.031-0.01-0.047-0.015
					c0.168,0.116,0.341,0.223,0.511,0.336c0.111,0.074,0.222,0.148,0.335,0.22c0.296,0.189,0.595,0.371,0.898,0.548
					c0.125,0.073,0.248,0.148,0.374,0.219c0.299,0.169,0.603,0.329,0.908,0.486c0.13,0.067,0.259,0.138,0.391,0.203
					c0.319,0.158,0.643,0.306,0.968,0.452c0.119,0.053,0.237,0.112,0.356,0.163c0.441,0.191,0.886,0.372,1.336,0.54
					c0.085,0.032,0.171,0.058,0.257,0.089c0.364,0.132,0.729,0.261,1.098,0.378c0.2,0.064,0.403,0.119,0.604,0.179
					c0.257,0.076,0.514,0.154,0.774,0.223c0.225,0.06,0.452,0.113,0.679,0.168c0.24,0.058,0.479,0.117,0.72,0.17
					c0.236,0.051,0.472,0.097,0.709,0.143c0.235,0.046,0.47,0.091,0.707,0.131c0.241,0.041,0.482,0.077,0.723,0.113
					c0.235,0.034,0.471,0.067,0.706,0.096c0.243,0.03,0.486,0.057,0.729,0.082c0.237,0.024,0.474,0.044,0.712,0.063
					c0.242,0.019,0.484,0.037,0.726,0.05c0.243,0.013,0.487,0.022,0.73,0.03c0.236,0.008,0.472,0.016,0.709,0.019
					c0.257,0.003,0.514-0.001,0.772-0.004c0.222-0.003,0.444-0.003,0.666-0.01c0.289-0.01,0.578-0.028,0.866-0.045
					c0.19-0.011,0.38-0.018,0.57-0.033c0.477-0.036,0.953-0.082,1.427-0.139c0.889-0.112,1.764-0.247,2.648-0.426
					c5.002-0.461,9.664-2.196,13.536-5.065c0.645-0.478,1.272-0.979,1.869-1.524c2.16-1.764,4.057-3.735,5.658-5.873
					c0.532-0.713,1.032-1.442,1.5-2.192c1.459-2.481,2.527-5.111,3.249-7.816c0.236-0.895,0.438-1.808,0.595-2.727
					c0.619-2.594,0.955-5.236,0.974-7.865C71.759,33.572,71.731,32.708,71.658,31.835z"/>
			</g>
		</g>
		<g>
			<path fill="#ED4F43" d="M0.05,33.525c-0.113,1.582-0.033,3.14,0.229,4.649c0.123,0.757,0.297,1.503,0.507,2.242
				c2.005,7.112,6.125,13.592,12.067,17.657c0.66,0.459,1.34,0.879,2.048,1.271c6.26,5.202,14.72,7.164,22.701,6.199
				c0.889-0.112,1.764-0.247,2.648-0.426c5.002-0.461,9.664-2.196,13.536-5.065c0.645-0.478,1.272-0.979,1.869-1.524
				c2.16-1.764,4.057-3.735,5.658-5.872c0.532-0.713,1.032-1.442,1.5-2.192c1.459-2.481,2.527-5.111,3.249-7.816
				c0.236-0.895,0.438-1.808,0.595-2.727c0.619-2.594,0.955-5.236,0.974-7.865c0.004-0.871-0.024-1.735-0.096-2.607
				c-0.008-0.917-0.077-1.814-0.195-2.701c-0.111-0.892-0.281-1.768-0.491-2.629c-2.222-8.646-7.82-16.278-15.686-20.302
				c-0.604-0.325-1.213-0.631-1.843-0.923c-3.75-1.699-7.931-2.599-12.156-2.733c-0.739-0.069-1.478-0.113-2.219-0.14
				c-0.741-0.025-1.49-0.027-2.231-0.005c-0.885,0.024-1.776,0.077-2.657,0.167c-3.689,0.312-7.326,1.277-10.647,2.83
				c-0.834,0.389-1.645,0.817-2.442,1.28c-6.68,3.247-11.921,9.112-13.943,16.273c-0.258,0.897-0.455,1.818-0.622,2.753
				c-0.404,2.598-0.909,5.14-1.889,7.753C0.319,31.893,0.16,32.712,0.05,33.525z"/>
			<path fill="#F4716E" d="M56.959,7.776c-1.276-1.118-2.647-2.134-4.104-3.008C33.231,32.37,0.279,38.175,0.279,38.175
				c0.123,0.757,0.297,1.503,0.507,2.242c0.177,0.622,0.379,1.25,0.588,1.859C34.329,34.866,51.289,15.558,56.959,7.776z"/>
			<path fill="#F4716E" d="M49.873,3.176c-0.188-0.092-0.363-0.194-0.554-0.283c-1.413-0.64-2.888-1.17-4.406-1.584
				C30.63,19.297,10.797,27.088,0.877,30.024c-0.111,0.354-0.234,0.702-0.366,1.046c-0.192,0.822-0.352,1.641-0.462,2.455
				c-0.029,0.38-0.043,0.758-0.046,1.13C27.775,27.26,43.325,11.467,49.873,3.176z"/>
			<g>
				<g>
					<path fill="#DB2823" d="M62.047,28.139c0-9.031-3.488-17.245-9.19-23.371c6.97,4.199,11.936,11.345,13.992,19.351
						c0.21,0.861,0.38,1.737,0.491,2.629c0.118,0.887,0.187,1.784,0.195,2.701c0.072,0.872,0.101,1.737,0.096,2.607
						c-0.019,2.629-0.355,5.271-0.974,7.865c-0.156,0.919-0.358,1.832-0.595,2.727c-0.722,2.705-1.79,5.335-3.249,7.816
						c-0.468,0.75-0.967,1.479-1.5,2.192c-1.601,2.138-3.498,4.108-5.658,5.872c-0.597,0.545-1.225,1.046-1.869,1.524
						c-3.872,2.869-8.533,4.604-13.536,5.065c-0.884,0.179-1.759,0.315-2.648,0.426c-7.265,0.876-14.92-0.67-20.96-4.869
						c3.469,1.177,7.188,1.818,11.055,1.818C46.668,62.493,62.047,47.114,62.047,28.139z"/>
				</g>
			</g>
			<g>
				<path fill="#DB2823" d="M17.411,50.302c0,0.495,0.399,0.895,0.891,0.895c0.492,0,0.89-0.4,0.89-0.895
					c0-0.49-0.398-0.89-0.89-0.89C17.81,49.412,17.411,49.812,17.411,50.302z"/>
				<path fill="#DB2823" d="M16.064,49.326c0,0.224,0.176,0.395,0.396,0.395c0.215,0,0.397-0.171,0.397-0.395
					c0-0.215-0.182-0.396-0.397-0.396C16.239,48.93,16.064,49.11,16.064,49.326z"/>
				<path fill="#DB2823" d="M21.044,49.412c0,0.225,0.182,0.394,0.397,0.394c0.215,0,0.396-0.168,0.396-0.394
					c0-0.216-0.181-0.396-0.396-0.396C21.226,49.016,21.044,49.196,21.044,49.412z"/>
				<path fill="#DB2823" d="M15.924,50.953c0,0.264,0.208,0.469,0.462,0.469c0.256,0,0.47-0.206,0.47-0.469
					c0-0.253-0.213-0.461-0.47-0.461C16.132,50.492,15.924,50.7,15.924,50.953z"/>
			</g>
			<g>
				<path fill="#DB2823" d="M52.532,45.746c0,0.492,0.398,0.888,0.89,0.888c0.49,0,0.887-0.396,0.887-0.888
					c0-0.484-0.397-0.882-0.887-0.882C52.931,44.864,52.532,45.262,52.532,45.746z"/>
				<path fill="#DB2823" d="M51.178,44.777c0,0.214,0.183,0.394,0.396,0.394c0.22,0,0.397-0.18,0.397-0.394
					c0-0.223-0.177-0.396-0.397-0.396C51.36,44.381,51.178,44.554,51.178,44.777z"/>
				<path fill="#DB2823" d="M56.169,44.864c0,0.213,0.172,0.393,0.393,0.393c0.218,0,0.396-0.18,0.396-0.393
					c0-0.227-0.178-0.397-0.396-0.397C56.341,44.467,56.169,44.637,56.169,44.864z"/>
				<path fill="#DB2823" d="M51.046,46.405c0,0.253,0.205,0.468,0.466,0.468c0.255,0,0.459-0.215,0.459-0.468
					c0-0.264-0.205-0.464-0.459-0.464C51.251,45.941,51.046,46.141,51.046,46.405z"/>
			</g>
			<g>
				<path fill="#DB2823" d="M50.882,15.583c-0.386,0.822-0.035,1.803,0.787,2.19c0.822,0.386,1.802,0.024,2.188-0.787
					c0.385-0.824,0.035-1.804-0.787-2.192C52.249,14.412,51.268,14.762,50.882,15.583z"/>
				<path fill="#DB2823" d="M49.387,12.897c-0.176,0.363-0.017,0.8,0.348,0.965c0.367,0.177,0.8,0.018,0.976-0.349
					c0.167-0.363,0.014-0.798-0.351-0.968C49.99,12.37,49.562,12.53,49.387,12.897z"/>
				<path fill="#DB2823" d="M57.657,16.962c-0.176,0.359-0.016,0.797,0.352,0.963c0.364,0.178,0.8,0.017,0.974-0.35
					c0.169-0.364,0.017-0.797-0.353-0.968C58.26,16.433,57.831,16.594,57.657,16.962z"/>
				<path fill="#DB2823" d="M47.877,15.505c-0.205,0.432-0.02,0.946,0.412,1.145c0.429,0.204,0.936,0.016,1.141-0.415
					c0.2-0.419,0.019-0.934-0.411-1.139C48.589,14.896,48.076,15.078,47.877,15.505z"/>
				<path fill="#DB2823" d="M8.628,21.032c-0.386,0.823-0.035,1.803,0.787,2.191c0.816,0.382,1.795,0.032,2.181-0.788
					c0.385-0.825,0.034-1.806-0.787-2.193C9.989,19.859,9.013,20.211,8.628,21.032z"/>
				<path fill="#DB2823" d="M7.127,18.346c-0.17,0.364-0.016,0.797,0.35,0.976c0.372,0.167,0.802,0.015,0.975-0.354
					C8.625,18.6,8.468,18.172,8.1,17.995C7.735,17.819,7.299,17.978,7.127,18.346z"/>
				<path fill="#DB2823" d="M5.618,20.956c-0.201,0.43-0.016,0.942,0.412,1.151c0.432,0.194,0.941,0.014,1.14-0.415
					c0.205-0.428,0.019-0.943-0.412-1.143C6.329,20.345,5.822,20.533,5.618,20.956z"/>
			</g>
		</g>
	</g>
</g>
<g id="LOGO">
</g>
<g id="datos">
	<g>
	</g>
</g>
<g id="guia" display="none">
</g>
</svg>
