<?xml version="1.0" encoding="utf-8"?>
<!-- Generator: Adobe Illustrator 17.0.0, SVG Export Plug-In . SVG Version: 6.00 Build 0)  -->
<!DOCTYPE svg PUBLIC "-//W3C//DTD SVG 1.1//EN" "http://www.w3.org/Graphics/SVG/1.1/DTD/svg11.dtd">
<svg version="1.1" xmlns="http://www.w3.org/2000/svg" xmlns:xlink="http://www.w3.org/1999/xlink" x="0px" y="0px"
	 width="22.845px" height="22.845px" viewBox="0 0 22.845 22.845" enable-background="new 0 0 22.845 22.845" xml:space="preserve">
<g id="Capa_4">
</g>
<g id="fondo">
	<g>
		<circle opacity="0.1" fill="#FFFFFF" cx="11.422" cy="11.422" r="11.422"/>
		<path d="M16.885,4.013c1.594,1.667,2.579,3.922,2.579,6.411c0,5.128-4.157,9.284-9.284,9.284c-1.756,0-3.393-0.497-4.793-1.344
			c1.69,1.768,4.066,2.874,6.705,2.874c5.128,0,9.284-4.157,9.284-9.284C21.376,8.582,19.573,5.639,16.885,4.013z"/>
		<circle fill="#AE59B9" cx="11.422" cy="11.422" r="9.284"/>
		<path fill="#9966CC" d="M16.216,3.482c1.594,1.667,2.579,3.922,2.579,6.411c0,5.128-4.157,9.284-9.284,9.284
			c-1.756,0-3.393-0.497-4.793-1.344c1.69,1.768,4.066,2.874,6.705,2.874c5.128,0,9.284-4.157,9.284-9.284
			C20.707,8.051,18.904,5.108,16.216,3.482z"/>
	</g>
</g>
<g id="LOGO">
</g>
<g id="datos">
</g>
<g id="guia" display="none">
</g>
</svg>
