<?xml version="1.0" encoding="utf-8"?>
<!-- Generator: Adobe Illustrator 17.0.0, SVG Export Plug-In . SVG Version: 6.00 Build 0)  -->
<!DOCTYPE svg PUBLIC "-//W3C//DTD SVG 1.1//EN" "http://www.w3.org/Graphics/SVG/1.1/DTD/svg11.dtd">
<svg version="1.1" xmlns="http://www.w3.org/2000/svg" xmlns:xlink="http://www.w3.org/1999/xlink" x="0px" y="0px"
	 width="48.999px" height="48.999px" viewBox="0 0 48.999 48.999" enable-background="new 0 0 48.999 48.999" xml:space="preserve">
<g id="Capa_4">
</g>
<g id="fondo">
	<g>
		<circle opacity="0.1" fill="#043C74" cx="24.5" cy="24.5" r="24.5"/>
		<radialGradient id="SVGID_1_" cx="24.4996" cy="24.4996" r="19.25" gradientUnits="userSpaceOnUse">
			<stop  offset="0" style="stop-color:#003C58"/>
			<stop  offset="1" style="stop-color:#011722"/>
		</radialGradient>
		<circle fill="url(#SVGID_1_)" cx="24.5" cy="24.5" r="19.25"/>
		<g>
			<defs>
				<circle id="SVGID_19_" cx="24.5" cy="24.5" r="19.25"/>
			</defs>
			<clipPath id="SVGID_2_">
				<use xlink:href="#SVGID_19_"  overflow="visible"/>
			</clipPath>
			<g clip-path="url(#SVGID_2_)">
				<g opacity="0.4">
					<path fill="#011722" d="M0.659,39.239c0,0,4.388-1.647,8.647,0.895c3.081,1.837,7.083,3.743,12.033,2.184
						c4.95-1.558,11.523-2.146,15.535,1.408c4.012,3.554,9.188,1.913,9.188,1.913v2.66c0,0-3.412,2.015-9.188-0.957
						c-5.776-2.972-9.299-3.167-12.451-1.887c-3.153,1.28-9.84,2.577-15.997-0.829c-4.834-2.673-7.772-1.824-7.772-1.824
						L0.659,39.239z"/>
					<path fill="#011722" d="M0.659,31.517c0,0,4.388-1.647,8.647,0.894c3.081,1.838,7.083,3.744,12.033,2.184
						c4.95-1.56,11.523-2.147,15.535,1.408c4.012,3.554,9.188,1.914,9.188,1.914v2.66c0,0-3.412,2.014-9.188-0.958
						c-5.776-2.972-9.299-3.168-12.451-1.887c-3.153,1.28-9.84,2.577-15.997-0.829c-4.834-2.674-7.772-1.824-7.772-1.824
						L0.659,31.517z"/>
					<path fill="#011722" d="M0.659,23.677c0,0,4.388-1.646,8.647,0.894c3.081,1.838,7.083,3.744,12.033,2.185
						c4.95-1.56,11.523-2.147,15.535,1.407c4.012,3.554,9.188,1.914,9.188,1.914v2.659c0,0-3.412,2.015-9.188-0.957
						c-5.776-2.972-9.299-3.168-12.451-1.887c-3.153,1.28-9.84,2.577-15.997-0.828c-4.834-2.673-7.772-1.824-7.772-1.824
						L0.659,23.677z"/>
				</g>
				<g opacity="0.4">
					<path fill="#011722" d="M0.659,16.12c0,0,4.388-1.647,8.647,0.895c3.081,1.837,7.083,3.743,12.033,2.184
						c4.95-1.558,11.523-2.146,15.535,1.408c4.012,3.554,9.188,1.913,9.188,1.913v2.66c0,0-3.412,2.015-9.188-0.957
						c-5.776-2.972-9.299-3.167-12.451-1.887c-3.153,1.28-9.84,2.577-15.997-0.829c-4.834-2.673-7.772-1.824-7.772-1.824
						L0.659,16.12z"/>
					<path fill="#011722" d="M0.659,8.398c0,0,4.388-1.647,8.647,0.894c3.081,1.838,7.083,3.744,12.033,2.184
						c4.95-1.56,11.523-2.147,15.535,1.408c4.012,3.554,9.188,1.914,9.188,1.914v2.66c0,0-3.412,2.014-9.188-0.958
						c-5.776-2.972-9.299-3.168-12.451-1.887c-3.153,1.28-9.84,2.577-15.997-0.829c-4.834-2.674-7.772-1.824-7.772-1.824
						L0.659,8.398z"/>
					<path fill="#011722" d="M0.659,0.558c0,0,4.388-1.646,8.647,0.894c3.081,1.838,7.083,3.744,12.033,2.185
						c4.95-1.56,11.523-2.147,15.535,1.407c4.012,3.554,9.188,1.914,9.188,1.914v2.659c0,0-3.412,2.015-9.188-0.957
						c-5.776-2.972-9.299-3.168-12.451-1.887c-3.153,1.28-9.84,2.577-15.997-0.828C3.592,3.271,0.653,4.121,0.653,4.121L0.659,0.558
						z"/>
				</g>
			</g>
		</g>
		<path opacity="0.1" d="M35.269,8.542c2.078,3.074,3.293,6.78,3.293,10.77c0,10.632-8.618,19.25-19.25,19.25
			c-3.99,0-7.696-1.214-10.77-3.293c3.46,5.117,9.316,8.48,15.957,8.48c10.631,0,19.25-8.618,19.25-19.25
			C43.75,17.858,40.386,12.002,35.269,8.542z"/>
	</g>
</g>
<g id="LOGO">
</g>
<g id="datos">
</g>
<g id="guia" display="none">
</g>
</svg>
