<?xml version="1.0" encoding="utf-8"?>
<!-- Generator: Adobe Illustrator 17.0.0, SVG Export Plug-In . SVG Version: 6.00 Build 0)  -->
<!DOCTYPE svg PUBLIC "-//W3C//DTD SVG 1.1//EN" "http://www.w3.org/Graphics/SVG/1.1/DTD/svg11.dtd">
<svg version="1.1" xmlns="http://www.w3.org/2000/svg" xmlns:xlink="http://www.w3.org/1999/xlink" x="0px" y="0px"
	 width="194.337px" height="183.761px" viewBox="0 0 194.337 183.761" enable-background="new 0 0 194.337 183.761"
	 xml:space="preserve">
<g id="Capa_4">
</g>
<g id="fondo">
</g>
<g id="LOGO">
</g>
<g id="datos">
	<g>
		<path opacity="0.1" fill="#FFFFFF" d="M165.713,144.243c-3.769,0-7.278,1.071-10.27,2.899
			c-1.515-11.461-9.02-21.027-19.268-25.448c-0.004-0.002-0.009-0.003-0.013-0.005c-0.427-0.184-0.859-0.36-1.296-0.526
			c-0.045-0.017-0.091-0.032-0.137-0.049c-0.399-0.15-0.8-0.294-1.206-0.428c-0.081-0.027-0.163-0.05-0.244-0.076
			c-0.374-0.12-0.749-0.237-1.129-0.344c-0.116-0.033-0.235-0.06-0.352-0.091c-0.348-0.094-0.696-0.187-1.049-0.269
			c-0.156-0.037-0.314-0.066-0.471-0.1c-0.317-0.069-0.634-0.14-0.955-0.199c-0.198-0.037-0.4-0.065-0.599-0.098
			c-0.284-0.047-0.568-0.098-0.855-0.138c-0.24-0.033-0.484-0.056-0.726-0.085c-0.25-0.029-0.499-0.063-0.75-0.086
			c-0.302-0.028-0.608-0.044-0.912-0.064c-0.196-0.013-0.39-0.031-0.587-0.041c-0.503-0.023-1.009-0.035-1.518-0.035
			c-0.273,0-0.54,0.022-0.808,0.03c0.002,0,0.003,0,0.005,0c-1.567,0.038-3.107,0.182-4.611,0.436
			c-0.009-0.003-0.018-0.005-0.027-0.007c-0.185-0.052-0.368-0.107-0.555-0.15c-0.132-0.031-0.266-0.052-0.399-0.078
			c-0.159-0.031-0.318-0.067-0.479-0.092c-0.177-0.027-0.355-0.043-0.533-0.063c-0.12-0.013-0.238-0.032-0.358-0.041
			c-0.3-0.023-0.601-0.035-0.904-0.035c-0.207,0-0.393,0.024-0.589,0.035c0.009,0,0.017,0.002,0.026,0.002
			c-3.66,0.19-5.952,2.18-8.885,5.509c-1.54-14.06-10.239-24.721-19.074-24.721c-1.359,0-2.681,0.26-3.953,0.739
			c-2.142-0.482-4.369-0.739-6.656-0.739c-16.674,0-30.184,13.516-30.184,30.19c0,2.445,0.297,4.822,0.846,7.097
			c-1.132-0.213-2.3-0.324-3.485-0.373c0.015-0.001,0.029-0.002,0.044-0.003c-0.336-0.013-0.664-0.043-1.006-0.043
			c-12.98,0-23.503,10.522-23.503,23.507c0,12.979,10.523,23.5,23.503,23.5h1.977h22.262h1.48h37.75h33.614h1.084h24.272h1.482
			c10.912,0,19.765-8.841,19.765-19.76C185.478,153.088,176.624,144.243,165.713,144.243z"/>
		<path opacity="0.05" fill="#FFFFFF" d="M147.426,134.656c-3.769,0-7.278,1.071-10.27,2.899
			c-1.515-11.461-9.02-21.027-19.268-25.448c-0.004-0.002-0.009-0.003-0.013-0.005c-0.427-0.184-0.859-0.36-1.296-0.526
			c-0.045-0.017-0.091-0.032-0.137-0.049c-0.399-0.15-0.8-0.294-1.206-0.428c-0.081-0.027-0.163-0.05-0.244-0.076
			c-0.374-0.12-0.749-0.237-1.129-0.344c-0.116-0.033-0.235-0.06-0.352-0.091c-0.348-0.094-0.696-0.187-1.049-0.269
			c-0.156-0.037-0.314-0.066-0.471-0.1c-0.317-0.069-0.634-0.14-0.955-0.199c-0.198-0.037-0.4-0.065-0.599-0.098
			c-0.284-0.047-0.568-0.098-0.855-0.138c-0.24-0.033-0.484-0.056-0.726-0.085c-0.25-0.029-0.499-0.063-0.75-0.086
			c-0.302-0.028-0.608-0.044-0.912-0.064c-0.196-0.013-0.39-0.031-0.587-0.041c-0.503-0.023-1.009-0.035-1.518-0.035
			c-0.273,0-0.54,0.022-0.808,0.03c0.002,0,0.003,0,0.005,0c-1.567,0.038-3.107,0.182-4.611,0.436
			c-0.009-0.003-0.018-0.005-0.027-0.007c-0.185-0.052-0.368-0.107-0.555-0.15c-0.132-0.031-0.266-0.052-0.399-0.078
			c-0.159-0.031-0.318-0.067-0.479-0.092c-0.177-0.027-0.355-0.043-0.533-0.063c-0.12-0.013-0.238-0.032-0.358-0.041
			c-0.3-0.023-0.601-0.035-0.904-0.035c-0.207,0-0.393,0.024-0.589,0.035c0.009,0,0.017,0.002,0.026,0.002
			c-3.66,0.19-5.952,2.18-8.885,5.509c-1.54-14.06-10.239-24.721-19.074-24.721c-1.359,0-2.681,0.26-3.953,0.739
			c-2.142-0.482-4.369-0.739-6.656-0.739c-16.674,0-30.184,13.516-30.184,30.19c0,2.445,0.297,4.822,0.846,7.097
			c-1.132-0.213-2.3-0.324-3.485-0.373c0.015-0.001,0.029-0.002,0.044-0.003c-0.336-0.013-0.664-0.043-1.006-0.043
			C10.523,127.167,0,137.69,0,150.674c0,12.979,10.523,23.5,23.503,23.5h1.977h22.262h1.48h37.75h33.614h1.084h24.272h1.482
			c10.912,0,19.765-8.841,19.765-19.76C167.191,143.5,158.337,134.656,147.426,134.656z"/>
		<path opacity="0.05" fill="#FFFFFF" d="M174.572,134.656c-3.769,0-7.278,1.071-10.27,2.899
			c-1.515-11.461-9.02-21.027-19.268-25.448c-0.004-0.002-0.009-0.003-0.013-0.005c-0.427-0.184-0.859-0.36-1.296-0.526
			c-0.045-0.017-0.091-0.032-0.137-0.049c-0.399-0.15-0.8-0.294-1.206-0.428c-0.081-0.027-0.163-0.05-0.244-0.076
			c-0.374-0.12-0.749-0.237-1.129-0.344c-0.116-0.033-0.235-0.06-0.352-0.091c-0.348-0.094-0.696-0.187-1.049-0.269
			c-0.156-0.037-0.314-0.066-0.471-0.1c-0.317-0.069-0.634-0.14-0.955-0.199c-0.198-0.037-0.4-0.065-0.599-0.098
			c-0.284-0.047-0.568-0.098-0.855-0.138c-0.24-0.033-0.484-0.056-0.726-0.085c-0.25-0.029-0.499-0.063-0.75-0.086
			c-0.302-0.028-0.608-0.044-0.912-0.064c-0.196-0.013-0.39-0.031-0.587-0.041c-0.503-0.023-1.009-0.035-1.518-0.035
			c-0.273,0-0.54,0.022-0.808,0.03c0.002,0,0.003,0,0.005,0c-1.567,0.038-3.107,0.182-4.611,0.436
			c-0.009-0.003-0.018-0.005-0.027-0.007c-0.185-0.052-0.368-0.107-0.555-0.15c-0.132-0.031-0.266-0.052-0.399-0.078
			c-0.159-0.031-0.318-0.067-0.479-0.092c-0.177-0.027-0.355-0.043-0.533-0.063c-0.12-0.013-0.238-0.032-0.358-0.041
			c-0.3-0.023-0.601-0.035-0.904-0.035c-0.207,0-0.393,0.024-0.589,0.035c0.009,0,0.017,0.002,0.026,0.002
			c-3.66,0.19-5.952,2.18-8.885,5.509c-1.54-14.06-10.239-24.721-19.074-24.721c-1.359,0-2.681,0.26-3.953,0.739
			c-2.142-0.482-4.369-0.739-6.656-0.739c-16.674,0-30.184,13.516-30.184,30.19c0,2.445,0.297,4.822,0.846,7.097
			c-1.132-0.213-2.3-0.324-3.485-0.373c0.015-0.001,0.029-0.002,0.044-0.003c-0.336-0.013-0.664-0.043-1.006-0.043
			c-12.98,0-23.503,10.522-23.503,23.507c0,12.979,10.523,23.5,23.503,23.5h1.977h22.262h1.48h37.75h33.614h1.084h24.272h1.482
			c10.912,0,19.765-8.841,19.765-19.76C194.337,143.5,185.483,134.656,174.572,134.656z"/>
		<rect x="101.202" y="0" fill="#FFFFFF" width="1.583" height="137.621"/>
		<g>
			
				<linearGradient id="SVGID_1_" gradientUnits="userSpaceOnUse" x1="299.4725" y1="132.2365" x2="386.4456" y2="132.2365" gradientTransform="matrix(1 0 0 1 -284.563 0)">
				<stop  offset="0" style="stop-color:#F1F2F2"/>
				<stop  offset="0.0413" style="stop-color:#EBECEC"/>
				<stop  offset="0.2146" style="stop-color:#D6D8D9"/>
				<stop  offset="0.409" style="stop-color:#C7C9CB"/>
				<stop  offset="0.6398" style="stop-color:#BFC1C2"/>
				<stop  offset="1" style="stop-color:#BCBEC0"/>
			</linearGradient>
			<path fill="url(#SVGID_1_)" d="M72.198,90.299c-16.674,0-30.184,13.516-30.184,30.19c0,2.445,0.297,4.822,0.846,7.097
				c-1.44-0.271-2.925-0.419-4.447-0.419c-12.981,0-23.503,10.523-23.503,23.507c0,12.979,10.523,23.5,23.503,23.5h63.47v-59.155
				C99.307,100.959,87,90.299,72.198,90.299z"/>
			<g>
				<path fill="#F1F2F2" d="M44.834,127.586c-0.547-2.275-0.844-4.652-0.844-7.097c0-16.361,13.019-29.646,29.251-30.143
					c-0.35-0.01-0.691-0.047-1.042-0.047c-16.674,0-30.184,13.516-30.184,30.19c0,2.345,0.287,4.62,0.796,6.809
					C43.493,127.369,44.17,127.465,44.834,127.586z"/>
				<path fill="#F1F2F2" d="M16.883,150.674c0-12.658,10.006-22.95,22.536-23.464c-0.336-0.013-0.664-0.043-1.006-0.043
					c-12.981,0-23.503,10.523-23.503,23.507c0,12.979,10.523,23.5,23.503,23.5h1.977C27.408,174.174,16.883,163.653,16.883,150.674z
					"/>
			</g>
			
				<linearGradient id="SVGID_2_" gradientUnits="userSpaceOnUse" x1="386.4456" y1="141.8237" x2="466.6634" y2="141.8237" gradientTransform="matrix(1 0 0 1 -284.563 0)">
				<stop  offset="0" style="stop-color:#D0D2D3"/>
				<stop  offset="1" style="stop-color:#F1F2F2"/>
			</linearGradient>
			<path fill="url(#SVGID_2_)" d="M182.1,154.414c0-10.914-8.854-19.758-19.765-19.758c-3.769,0-7.278,1.071-10.27,2.899
				c-2.096-15.85-15.643-28.082-32.066-28.082c-6.71,0-12.951,2.045-18.116,5.546v59.155h60.453
				C173.247,174.174,182.1,165.333,182.1,154.414z"/>
			<g>
				<path fill="#F1F2F2" d="M150.586,137.555c0.432-0.265,0.895-0.479,1.349-0.708c-2.402-15.503-15.765-27.373-31.936-27.373
					c-0.273,0-0.54,0.022-0.808,0.03C135.304,109.836,148.521,121.925,150.586,137.555z"/>
				<path fill="#F1F2F2" d="M162.335,134.656c-0.214,0-0.409,0.033-0.62,0.039c10.516,0.458,18.898,9.098,18.898,19.719
					c0,10.919-8.846,19.76-19.76,19.76h1.482c10.912,0,19.765-8.841,19.765-19.76C182.1,143.5,173.247,134.656,162.335,134.656z"/>
			</g>
			
				<radialGradient id="SVGID_3_" cx="355.2279" cy="140.7312" r="61.6614" gradientTransform="matrix(1 0 0 1.9075 -284.563 -127.7136)" gradientUnits="userSpaceOnUse">
				<stop  offset="0" style="stop-color:#FFFFFF"/>
				<stop  offset="0.0133" style="stop-color:#FDFDFD"/>
				<stop  offset="0.2627" style="stop-color:#E1E2E3"/>
				<stop  offset="0.5118" style="stop-color:#CCCECF"/>
				<stop  offset="0.7585" style="stop-color:#C0C2C4"/>
				<stop  offset="1" style="stop-color:#BCBEC0"/>
			</radialGradient>
			<path fill="url(#SVGID_3_)" d="M82.808,90.299c-9.948,0-18.006,13.516-18.006,30.19c0,2.445,0.176,4.822,0.501,7.097
				c-0.855-0.271-1.742-0.419-2.652-0.419c-7.744,0-14.022,10.523-14.022,23.507c0,12.979,6.278,23.5,14.022,23.5h39.231v-59.155
				C100.343,100.959,91.643,90.299,82.808,90.299z"/>
			<g>
				<path fill="#FFFFFF" d="M50.112,150.674c0-12.573,5.89-22.812,13.294-23.45c-0.249-0.024-0.496-0.057-0.754-0.057
					c-7.744,0-14.022,10.523-14.022,23.507c0,12.979,6.278,23.5,14.022,23.5h1.48C56.387,174.174,50.112,163.653,50.112,150.674z"/>
				<path fill="#FFFFFF" d="M66.789,127.586c-0.326-2.275-0.509-4.652-0.509-7.097c0-16.28,7.69-29.513,17.315-30.132
					c-0.26-0.017-0.527-0.058-0.787-0.058c-9.948,0-18.006,13.516-18.006,30.19c0,2.329,0.167,4.592,0.471,6.768
					C65.783,127.326,66.291,127.433,66.789,127.586z"/>
			</g>
			
				<radialGradient id="SVGID_4_" cx="397.052" cy="142.6136" r="52.1097" gradientTransform="matrix(1 0 0 1 -284.563 0)" gradientUnits="userSpaceOnUse">
				<stop  offset="0" style="stop-color:#FFFFFF"/>
				<stop  offset="1" style="stop-color:#D0D2D3"/>
			</radialGradient>
			<path fill="url(#SVGID_4_)" d="M148.372,154.414c0-10.914-5.273-19.758-11.792-19.758c-2.243,0-4.338,1.071-6.124,2.899
				c-1.247-15.85-9.33-28.082-19.126-28.082c-4.006,0-6.363,2.045-9.448,5.546v59.155h34.698
				C143.099,174.174,148.372,165.333,148.372,154.414z"/>
			<g>
				<path fill="#FFFFFF" d="M136.581,134.656c-0.148,0-0.297,0.039-0.45,0.05c6.217,0.559,11.156,9.152,11.156,19.708
					c0,10.919-5.276,19.76-11.79,19.76h1.084c6.518,0,11.792-8.841,11.792-19.76C148.372,143.5,143.099,134.656,136.581,134.656z"/>
				<path fill="#FFFFFF" d="M129.372,137.555c0.317-0.323,0.654-0.594,0.99-0.874c-1.471-15.411-9.42-27.208-19.031-27.208
					c-0.207,0-0.393,0.024-0.589,0.035C120.313,109.923,128.147,121.982,129.372,137.555z"/>
			</g>
		</g>
	</g>
</g>
<g id="guia" display="none">
</g>
</svg>
